<svg width="669" height="669" viewBox="0 0 669 669" fill="none" xmlns="http://www.w3.org/2000/svg">
<path d="M108.736 510.593L107.594 494.377C101.24 497.913 92.9147 496.541 87.3618 491.769C81.8089 486.997 79.007 479.3 79.2326 471.837C79.4 466.221 81.6925 460.062 86.6995 457.891C91.7066 455.72 98.7806 460.499 97.1722 465.867C99.9377 466.734 101.713 462.783 101.699 459.791C101.655 449.169 95.7603 437.71 100.971 428.574C103.809 423.606 109.268 420.937 114.595 419.248C120.832 417.266 128.714 416.738 132.789 422.023C134.623 424.397 135.264 427.503 135.802 430.496C137.853 441.927 139.173 453.486 139.754 465.098C139.914 468.385 140.256 472.146 142.833 474.069C145.547 471.151 141.996 466.115 143.364 462.316C144.303 459.708 147.49 458.547 150.096 459.225C152.701 459.904 154.739 462.067 156.187 464.412C159.775 470.186 160.517 477.318 161.158 484.155C161.587 488.678 161.777 493.865 158.596 496.971C156.413 499.104 153.189 499.632 150.685 501.351C148.182 503.069 146.755 507.381 149.288 509.062" fill="#E3F8FE"/>
<path d="M316.945 454.687C304.338 470.2 293.026 486.794 283.133 504.291C278.853 511.874 275.163 521.69 267.595 526.424C262.318 529.726 250.288 529.869 248.127 537.151C247.079 540.687 249.975 543.272 252.355 545.27C255.701 548.103 259.343 550.538 263.213 552.53C270.357 556.148 278.056 558.444 285.964 559.314C294.124 560.243 302.376 559.787 310.395 557.965C320.307 555.703 326.282 548.602 333.363 541.591L385.581 489.93C387.546 487.977 384.562 484.887 382.59 486.839L340.816 528.165C333.938 534.95 327.301 542.262 320.031 548.617C313.539 554.301 303.881 555.206 295.672 555.402C287.855 555.601 280.062 554.402 272.638 551.859C269.064 550.626 265.616 549.036 262.34 547.109C260.706 546.145 259.12 545.096 257.588 543.966C256.816 543.393 256.052 542.797 255.317 542.179C254.728 541.682 254.153 541.177 253.585 540.672C252.566 540.169 252.421 539.415 253.148 538.41C253.942 534.897 260.186 534.045 263.141 533.08C266.49 532.103 269.626 530.465 272.376 528.256C278.344 523.227 281.684 515.666 285.432 508.897C295.449 490.832 306.998 473.728 319.943 457.786C321.675 455.637 318.706 452.509 316.952 454.687H316.945Z" fill="#0A0C48"/>
<path d="M474.231 471.574L479.536 401.895L428.279 350.882C387.524 363.863 353.319 395.668 325.664 429.283C318.277 438.238 310.715 448.521 311.072 460.289C311.37 470.202 317.52 479.188 325.387 484.834C333.254 490.48 342.708 493.239 352.082 495.26C385.171 502.357 419.406 501.325 452.041 492.244C462.441 489.282 474.66 482.723 474.231 471.574Z" fill="#4460F1"/>
<path d="M439.407 140.293C439.407 140.293 434.429 151.6 432.348 145.894C430.266 140.187 423.804 132.822 432.69 125.804C441.576 118.785 460.345 112.415 467.354 114.639C474.362 116.863 480.672 118.65 481.582 123.165C482.491 127.681 480.49 133.47 484.871 132.046C489.252 130.621 499.63 128.389 502.731 133.395C505.831 138.4 515.387 148.909 513.152 161.883C510.918 174.857 510.969 208.268 514.128 217.532C517.286 226.797 520.547 239.025 512.563 237.329C504.579 235.632 481.822 240.231 477.128 236.107C472.434 231.984 462.572 221.686 463.147 209.941C463.722 198.196 460.964 180.458 462.034 177.525C463.104 174.593 463.431 172.249 466.4 168.886C474.406 159.84 465.032 155.113 463.133 155.928C461.959 156.5 461.122 157.622 460.884 158.943C460.884 158.943 457.478 147.846 452.005 143.632C446.532 139.418 444.24 138.77 444.24 138.77L442.937 137.42" fill="#06112D"/>
<path d="M367.911 244.052L353.741 178.294C352.242 171.321 350.182 163.556 343.872 159.885C339.367 157.261 333.756 157.42 328.495 157.623C284.702 159.221 240.856 157.399 197.328 152.173C189.861 151.276 181.317 150.582 175.764 155.482C170.015 160.541 170.124 169.187 170.954 176.666C174.015 204.074 180.807 230.896 191.128 256.333C192.154 258.851 193.311 261.466 195.429 263.208C198.34 265.582 202.466 265.831 206.272 265.974C227.996 266.766 237.843 265.025 259.56 265.816L368.762 259.936C369.927 259.657 367.554 255.413 368.034 254.214C369.337 251.011 368.631 247.422 367.911 244.052Z" fill="#E3F8FE"/>
<path d="M281.926 222.931C279.241 225.36 277.048 228.304 274.395 230.768C273.243 231.84 272.467 232.769 272.883 234.443C273.434 236.665 274.461 238.866 275.248 241.01C275.691 242.218 276.007 243.583 277.353 243.992C278.319 244.287 279.361 243.942 279.98 243.124C281.17 241.497 280.351 239.291 282.432 238.277C284.576 237.233 286.737 236.215 288.888 235.184C289.77 234.762 288.986 233.425 288.108 233.848L283.335 236.133C282.275 236.64 280.757 237.06 280.046 238.084C279.234 239.248 279.568 241.041 278.72 242.113C277.37 243.827 276.309 239.503 275.971 238.584C275.446 237.146 274.576 235.521 274.318 234.007C274.087 232.546 276.047 231.319 276.97 230.349C278.98 228.241 280.832 225.964 282.992 224.013C283.723 223.345 282.635 222.263 281.907 222.924L281.926 222.931Z" fill="#4460F1" stroke="#4460F1" stroke-width="2"/>
<path d="M307.498 221.682C309.199 222.362 310.851 223.162 312.445 224.077C313.933 224.933 316.333 226.036 316.815 227.867C317.298 229.698 316.143 231.706 315.387 233.275C314.647 234.819 313.987 236.403 313.411 238.02C313.101 238.884 312.184 240.092 311.629 238.602C311.394 237.965 311.532 237.168 311.367 236.504C311.075 235.334 310.314 234.809 309.241 234.465C306.28 233.511 303.213 232.868 300.215 232.046C299.271 231.79 298.889 233.298 299.829 233.557C301.813 234.098 303.8 234.618 305.79 235.136C306.695 235.376 307.788 235.511 308.644 235.9C310.165 236.598 309.833 237.749 310.174 239.024C310.412 240.114 311.352 240.889 312.436 240.887C313.918 240.87 314.422 239.657 314.858 238.405C315.636 236.18 316.761 234.152 317.635 231.976C318.278 230.369 318.753 228.537 318.055 226.86C317.317 225.088 315.443 224.078 313.912 223.15C311.978 221.989 309.957 220.989 307.868 220.161C306.958 219.796 306.585 221.31 307.482 221.672L307.498 221.682Z" fill="#4460F1" stroke="#4460F1" stroke-width="2"/>
<path d="M283.199 223.257C279.692 204.127 277.452 183.278 286.021 165.157C286.674 163.778 288.163 159.457 290.102 160.038C291.441 160.437 292.845 163.329 293.604 164.478C295.481 167.295 297.189 170.228 298.717 173.261C301.759 179.364 303.962 185.874 305.263 192.602C307.093 201.908 307.33 211.471 306.935 220.939C306.892 221.929 308.408 221.911 308.448 220.922C309.145 204.196 307.521 187.323 299.922 172.274C298.248 168.987 296.37 165.815 294.297 162.778C292.868 160.675 290.251 156.333 287.449 159.433C286.021 161.012 285.099 163.476 284.232 165.406C283.278 167.535 282.449 169.722 281.749 171.954C280.305 176.661 279.355 181.514 278.913 186.43C277.724 198.908 279.493 211.436 281.738 223.683C281.916 224.67 283.37 224.231 283.192 223.25L283.199 223.257Z" fill="#4460F1" stroke="#4460F1" stroke-width="2"/>
<path d="M291.603 224.815C288.542 226.592 288.81 230.354 289.275 233.455C289.596 235.594 290.01 237.716 290.517 239.821C290.904 241.422 291.198 243.331 292.234 244.667C293.083 245.779 294.323 246.242 295.668 246.276C296.769 246.309 298.769 246.328 299.418 245.176C299.681 244.705 299.667 244.072 299.719 243.547C299.848 242.283 299.968 241.015 300.09 239.751L300.774 232.789C300.874 231.798 299.358 231.816 299.261 232.807C298.973 235.758 298.687 238.711 298.404 241.667C298.344 242.287 298.458 243.786 298.137 244.308C297.874 244.736 297.089 244.65 296.641 244.685C294.918 244.827 293.598 244.424 292.902 242.688C291.894 240.167 291.443 237.221 290.984 234.549C290.524 231.877 289.554 227.8 292.393 226.151C293.241 225.659 292.464 224.32 291.612 224.815L291.603 224.815Z" fill="#4460F1" stroke="#4460F1" stroke-width="2"/>
<path d="M292.268 185.564C289.02 185.823 286.413 188.871 286.093 192.152C285.755 195.602 288.477 198.191 291.707 198.351C294.938 198.511 297.899 196.405 298.645 193.158C299.281 190.384 298.146 185.752 294.766 185.719C293.79 185.707 293.808 187.267 294.784 187.278C297.604 187.308 297.632 192.145 296.782 193.892C295.845 195.852 293.761 196.929 291.676 196.792C289.14 196.624 287.141 194.537 287.648 191.843C288.078 189.557 289.93 187.299 292.274 187.113C293.233 187.039 293.215 185.48 292.256 185.554L292.268 185.564Z" fill="#4460F1" stroke="#4460F1" stroke-width="2"/>
<path d="M371.288 256.62C376.95 259.364 382.721 255.074 383.958 249.081C384.686 245.455 384.002 241.761 383.303 238.188C382.292 233.024 381.229 227.875 380.188 222.719C376.186 202.832 372.241 182.931 368.18 163.052C366.841 156.523 365.269 149.558 360.902 144.394C355.983 138.544 348.72 137.609 341.631 137.73C322.709 138.144 303.787 138.657 284.799 138.174C265.479 137.672 246.184 136.508 226.912 134.684C217.277 133.764 207.677 132.596 198.063 131.442C191.331 130.636 183.77 130.063 177.686 133.704C164.586 141.514 168.61 160.843 170.313 173.47C172.802 192.014 176.716 210.323 182.016 228.222C184.876 237.864 187.707 248.071 192.037 257.14C196.106 265.658 204.177 265.832 212.328 266.148L278.271 268.727C280.986 268.832 280.986 264.46 278.271 264.354L226.789 262.349L214.475 261.867C210.581 261.716 206.353 261.965 202.546 260.969C194.767 258.942 192.882 247.905 190.545 241.038C185.202 225.377 180.932 209.345 177.766 193.062C176.15 184.775 174.828 176.432 173.799 168.034C172.97 161.25 171.791 153.892 173.341 147.108C177.271 129.89 198.442 135.966 210.516 137.345C227.123 139.25 243.772 140.66 260.463 141.574C277.386 142.499 294.323 142.914 311.276 142.818C319.626 142.773 327.976 142.602 336.326 142.305C343.749 142.042 352.555 140.964 357.904 147.5C362.722 153.387 363.675 162.094 365.182 169.361L370.96 198.083L376.892 227.551C377.86 232.331 378.995 237.11 379.759 241.927C380.137 244.339 380.421 247.016 379.512 249.338C378.602 251.659 376.106 254.087 373.457 252.805C371.004 251.622 368.857 255.391 371.324 256.574L371.288 256.62Z" fill="#4460F1"/>
<path d="M589.503 441.419C591.3 381.864 584.299 319.46 570.079 261.693C569.511 259.386 568.856 256.951 567.168 255.338C565.676 253.898 563.609 253.34 561.622 252.857C532.863 245.973 502.913 246.49 474.391 254.365C471.72 255.119 468.94 255.986 466.982 258.014C464.159 260.954 463.773 265.492 463.584 269.631C461.109 322.612 463.533 377.047 446.743 427.186C446.234 428.694 445.659 430.307 444.465 431.347C443.097 432.546 441.183 432.78 439.371 432.968L404.052 436.579C396.934 437.333 389.227 438.313 384.14 443.507C375.145 452.689 379.133 462.398 389.809 469.372C400.486 476.345 415.281 476.91 427.901 477.875C466.342 480.74 498.56 480.001 537.889 478.817C549.65 478.463 560.45 477.8 570.966 472.327C581.483 466.854 591.242 454.988 589.161 443.032" fill="#E3F8FE"/>
<path d="M439.072 135.068L430.39 158.867C428.978 162.712 426.86 166.865 426.023 170.883C425.587 173.009 426.183 174.788 428.207 175.587C429.546 176.115 430.019 175.587 430.448 177.201C430.921 179.01 430.594 181.528 430.761 183.443C431.074 187.212 431.613 190.906 432.217 194.615C433.519 202.847 434.989 210.988 435.128 219.364C435.128 222.176 439.392 222.183 439.356 219.364C439.254 211.712 438.09 204.219 436.845 196.695C436.117 192.519 435.477 188.335 435.091 184.114C434.808 181.098 435.492 176.982 434.364 174.125C434.051 173.347 433.505 172.695 432.806 172.263C432.253 171.909 430.004 171.848 429.72 171.509C430.259 172.173 431.765 167.514 432.013 166.835L434.247 160.722L443.14 136.251C444.108 133.613 440.026 132.482 439.072 135.091V135.068Z" fill="#0A0C48"/>
<path d="M441.933 161.981C441.867 161.89 441.7 161.634 441.831 161.883C441.772 161.777 441.7 161.476 441.751 161.747C441.751 161.627 441.751 161.295 441.751 161.581C441.707 161.988 441.845 161.212 441.751 161.491C441.754 161.536 441.754 161.581 441.751 161.627C441.751 161.74 441.751 161.717 441.794 161.559C441.838 161.4 441.867 161.385 441.794 161.491C441.775 161.533 441.753 161.573 441.729 161.611C441.554 161.83 442.013 161.295 441.816 161.491C441.62 161.687 442.246 161.212 441.867 161.446C441.184 161.823 440.755 162.557 440.749 163.36C440.744 164.162 441.163 164.903 441.841 165.29C442.519 165.677 443.348 165.648 443.999 165.215C444.963 164.627 445.64 163.643 445.863 162.509C446.112 161.213 445.768 159.872 444.931 158.875C444.103 158.025 442.768 158.025 441.94 158.875C441.15 159.746 441.15 161.103 441.94 161.973L441.933 161.981Z" fill="#0A0C48"/>
<path d="M581.214 432.131C582.744 374.897 577.004 317.702 564.14 262.017C562.903 256.642 562.364 248.531 558.267 244.497C554.475 240.728 547.35 240.381 542.496 239.492C529.17 237.047 515.624 236.14 502.105 236.786C488.794 237.426 475.235 239.386 462.427 243.261C457.834 244.656 454.006 247.03 452.332 251.9C450.396 257.524 450.877 264.248 450.666 270.128C449.618 298.586 449.567 327.127 446.758 355.487C445.426 369.804 443.113 384.005 439.836 397.982C438.25 404.601 436.591 411.416 434.16 417.763C432.544 421.97 428.498 421.532 424.764 421.909L413.462 423.07C406.497 423.779 399.518 424.45 392.553 425.211C387.32 425.784 381.964 426.515 377.212 429.018C368.653 433.541 363.675 444.02 369.148 452.983C375.036 462.67 386.804 466.907 397.174 468.701C409.496 470.827 422.239 471.211 434.691 471.837C461.371 473.164 488.081 472.809 514.746 472.071C537.111 471.46 567.277 472.334 578.659 447.555C580.761 443.087 581.49 438.059 580.748 433.149C580.348 430.375 576.279 431.551 576.68 434.31C578.383 445.995 568.776 456.27 559.468 461.14C548.238 467.02 535.451 467.095 523.166 467.457C498.335 468.211 473.481 468.769 448.643 468.015C436.343 467.645 424.066 466.899 411.788 465.979C400.777 465.15 388.798 464.102 379.402 457.476C375.254 454.551 370.669 450.02 370.858 444.359C371.091 438.471 376.375 433.805 381.331 431.89C386.789 429.787 392.822 429.553 398.564 428.965L418.345 426.937C421.635 426.598 424.939 426.274 428.229 425.927C430.412 425.694 432.726 425.513 434.633 424.239C438.454 421.698 439.4 415.305 440.622 411.182C444.233 398.785 446.953 386.129 448.759 373.316C452.471 347.745 453.322 321.873 454.043 296.061C454.399 283.246 453.992 269.978 455.498 257.215C455.847 254.2 456.655 251.094 459.232 249.3C461.67 247.611 465.01 247.038 467.812 246.322C474.081 244.7 480.432 243.442 486.836 242.553C499.521 240.811 512.348 240.472 525.102 241.542C531.671 242.093 538.205 243.026 544.672 244.339C547.356 244.8 550.012 245.421 552.627 246.201C556.338 247.437 557.088 250.815 557.947 254.32C570.616 306.018 577.095 359.134 577.24 412.471C577.24 419.004 577.148 425.553 576.963 432.116C576.883 434.928 581.104 434.928 581.184 432.116L581.214 432.131Z" fill="#0A0C48"/>
<path d="M442.143 178.58C442.143 178.384 441.896 179.289 441.961 179.146C441.847 179.448 441.684 179.728 441.481 179.975C441.071 180.437 440.536 180.76 439.946 180.902C437.311 181.588 438.424 185.81 441.066 185.124C443.978 184.322 446.099 181.725 446.379 178.618C446.525 177.45 445.309 176.432 444.268 176.432C443.119 176.471 442.196 177.427 442.158 178.618L442.143 178.58Z" fill="#0A0C48"/>
<path d="M535.211 555.899C534.374 558.665 530.044 558.326 527.868 558.349C524.484 558.386 521.092 558.402 517.679 558.424C510.887 558.464 504.111 558.484 497.352 558.484C490.594 558.484 483.826 558.459 477.048 558.409L467.587 558.356C464.45 558.356 460.716 558.914 457.652 558.213C455.718 557.915 454.382 556.049 454.669 554.044C455.054 551.142 458.424 550.388 460.665 549.521C466.208 547.416 471.635 545 476.924 542.284C481.232 539.955 486.53 537.414 489.42 533.17C492.586 528.511 491.952 521.576 492.331 516.156L495.184 471.339C495.358 468.527 491.137 468.542 490.955 471.339L488.044 516.879C487.804 520.649 488.146 525.24 486.894 528.851C485.643 532.461 481.887 534.391 478.889 536.193C472.339 540.136 465.36 542.865 458.337 545.797C454.501 547.403 450.651 549.272 450.44 554.09C450.235 557.722 452.388 561.052 455.709 562.239C458.293 563.098 461.313 562.683 463.977 562.706C468.091 562.736 472.215 562.761 476.349 562.781C484.112 562.817 491.855 562.832 499.579 562.827C508.313 562.827 517.027 562.789 525.721 562.714C530.677 562.714 537.496 563.045 539.309 557.03C540.124 554.338 536.048 553.185 535.24 555.869L535.211 555.899Z" fill="#0A0C48"/>
<path d="M451.808 171.811H448.17V168.041H451.808V171.811Z" fill="#E3F8FE"/>
<path d="M318.277 319.973H214.708C191.739 319.973 168.523 319.069 145.569 321.029C140.824 321.428 131.56 321.104 130.417 327.617C130.053 329.721 130.708 332.638 131.29 334.666C132.018 337.35 132.746 340.493 134.092 342.921C135.475 345.484 137.826 346.388 140.431 347.15C144.07 348.22 147.76 349.019 151.421 349.977C158.262 351.756 166.369 353.814 171.26 359.475C176.15 365.137 178.334 373.369 180.655 380.432C185.478 395.306 189.238 410.527 191.907 425.973C198.456 463.16 199.817 501.177 199.25 538.907C199.206 541.719 203.427 541.719 203.471 538.907C203.966 506.567 202.969 474.136 198.66 442.067C196.647 426.711 193.694 411.503 189.818 396.535C187.969 389.499 185.866 382.538 183.508 375.653C181.383 369.464 179.28 362.883 175.291 357.673C171.463 352.66 165.83 349.969 160.066 347.979C156.828 346.856 153.517 345.989 150.198 345.16L144.958 343.848C143.175 343.388 140.307 343.094 138.823 341.956C136.894 340.508 136.028 335.887 135.359 333.505C134.689 331.123 133.823 328.469 135.65 326.796C134.856 327.55 136.982 326.577 137.586 326.441C139.295 326.089 141.023 325.837 142.76 325.688C163.218 323.486 184.119 324.368 204.621 324.368H318.226C320.948 324.368 320.955 319.988 318.226 319.988L318.277 319.973Z" fill="#0A0C48"/>
<path d="M276.051 268.026C280.136 281.233 283.593 294.619 286.422 308.183L288.46 305.409C282.23 305.055 266.233 304.512 268.366 315.172C268.919 317.923 272.994 316.755 272.441 314.003C271.379 308.726 285.905 309.638 288.452 309.789C289.109 309.779 289.725 309.456 290.122 308.915C290.52 308.374 290.656 307.673 290.49 307.015C287.657 293.446 284.197 280.06 280.112 266.857C279.29 264.189 275.207 265.349 276.044 268.026H276.051Z" fill="#4460F1"/>
<path d="M171.878 538.055C174.651 530.894 177.962 523.732 180.262 516.389C181.717 511.798 179.083 509.1 174.636 508.813C167.759 508.383 160.626 509.107 153.734 509.265L131.552 509.778L109.369 510.298C102.558 510.457 95.1998 509.801 88.4679 510.803C84.3705 511.414 83.0387 514.972 83.5991 518.885C84.0721 522.187 85.5131 525.383 86.5757 528.519L90.3018 539.518C91.197 542.156 95.2798 541.025 94.3774 538.349C92.5143 532.854 90.6148 527.365 88.7808 521.855C88.053 519.729 86.3355 516.095 89.3339 515.138C91.7792 514.384 95.3453 514.995 97.9216 514.934L132.265 514.181L166.609 513.382C168.792 513.329 172.526 512.507 174.614 513.231C176.143 513.751 176.274 514.03 175.902 515.945C175.64 517.302 174.833 518.711 174.33 520.008L167.78 536.932C166.769 539.548 170.852 540.701 171.856 538.093L171.878 538.055Z" fill="#4460F1"/>
<path d="M404.306 110.545C404.756 110.56 405.192 110.712 405.558 110.983C405.92 111.274 406.191 111.67 406.337 112.121C406.537 112.875 407.111 113.461 407.841 113.659C408.572 113.856 409.349 113.635 409.879 113.078C410.409 112.522 410.613 111.714 410.412 110.96C409.583 108.17 407.124 106.242 404.306 106.173C401.592 106.105 401.592 110.478 404.306 110.545Z" fill="#4460F1"/>
<path d="M287.139 254.688C286.939 254.27 286.863 253.801 286.92 253.338C286.997 252.87 287.206 252.435 287.521 252.09C288.068 251.551 288.296 250.75 288.119 249.99C287.942 249.23 287.387 248.625 286.663 248.404C285.939 248.182 285.156 248.378 284.608 248.917C282.626 250.992 282.146 254.148 283.419 256.753C284.643 259.263 288.364 257.198 287.139 254.688Z" fill="#4460F1"/>
<path d="M354.209 188.857C354.659 188.871 355.095 189.024 355.461 189.294C355.823 189.586 356.094 189.982 356.24 190.433C356.44 191.187 357.013 191.773 357.744 191.97C358.475 192.168 359.251 191.946 359.782 191.39C360.312 190.833 360.515 190.026 360.315 189.272C359.486 186.481 357.027 184.553 354.209 184.485C351.495 184.417 351.495 188.789 354.209 188.857Z" fill="#4460F1"/>
<path d="M408.971 132.339L406.162 131.344C405.044 131.029 403.889 131.7 403.564 132.852C403.292 134.006 403.927 135.181 405.02 135.543L407.829 136.531C408.947 136.846 410.103 136.175 410.427 135.023C410.699 133.869 410.064 132.694 408.971 132.332V132.339Z" fill="#4460F1"/>
<path d="M408.862 152.144L402.371 149.95C399.78 149.075 398.666 153.297 401.243 154.171L407.734 156.365C410.325 157.24 411.439 153.01 408.862 152.144Z" fill="#4460F1"/>
<path d="M313.494 253.724L310.318 247.462C309.05 244.964 305.41 247.185 306.667 249.673L309.843 255.934C311.111 258.433 314.757 256.206 313.494 253.724Z" fill="#4460F1"/>
<path d="M437.915 134.941L451.124 146.248C453.031 147.877 455.287 149.43 456.888 151.397C458.962 153.938 458.62 157.179 458.344 160.262C458.096 162.841 461.772 163.052 462.492 160.843C463.016 159.26 464.093 157.074 466.131 157.277C467.761 157.458 468.314 161.046 468.314 162.215C468.278 164.989 466.957 167.575 464.763 169.165C462.885 170.673 465.418 174.126 467.317 172.603C472.179 168.713 474.529 161.212 470.57 155.694C469.042 153.568 466.458 152.068 463.846 152.747C460.709 153.553 459.348 156.825 458.409 159.682L462.558 160.262C463.154 154.051 462.034 150.033 457.419 145.977C451.976 141.205 446.408 136.561 440.914 131.85C438.832 130.071 435.819 133.154 437.922 134.948L437.915 134.941Z" fill="#0A0C48"/>
<path d="M461.721 181.785C461.248 189.188 460.993 196.598 461.037 204.008C461.037 210.793 461.262 217.676 463.555 224.083C465.432 229.323 468.431 234.6 472.652 238.173C474.282 239.611 476.209 240.643 478.285 241.188C480.97 241.822 484.151 240.623 486.574 242.123C488.998 243.623 491.043 239.786 488.706 238.354C484.711 235.881 480.017 238.211 476.08 235.414C471.466 232.142 468.358 225.93 466.851 220.51C465.119 214.223 465.236 207.544 465.265 201.061C465.294 194.578 465.534 188.245 465.942 181.8C466.124 178.988 461.895 179.003 461.721 181.8V181.785Z" fill="#0A0C48"/>
<path d="M437.187 147.899C432.508 143.248 429.538 138.288 432.013 131.511C434.334 125.148 440.018 121.341 446.023 119.389C456.699 115.936 475.213 113.478 480.854 126.475C481.967 129.045 485.606 126.822 484.493 124.266C477.651 108.51 454.603 110.915 441.911 116.275C435.295 119.072 429.757 124.1 427.61 131.352C425.23 139.366 428.723 145.585 434.16 151.013C436.118 152.965 439.109 149.874 437.144 147.922L437.187 147.899Z" fill="#0A0C48"/>
<path d="M484.107 119.848L480.665 126.573C479.391 129.06 483.037 131.269 484.303 128.781L487.746 122.057C489.019 119.569 485.373 117.361 484.107 119.848Z" fill="#0A0C48"/>
<path d="M493.786 132.679C503.648 132.822 508.815 142.562 510.307 151.525C511.857 160.873 510.874 170.635 510.154 180.021C509.433 189.406 508.698 198.867 509.943 208.237C510.506 212.449 511.504 216.587 512.919 220.578C514.601 225.38 516.784 230.31 516.049 235.549C515.663 238.301 519.739 239.492 520.124 236.71C521.58 226.413 515.205 216.982 513.996 206.896C512.65 195.648 514.164 184.28 514.884 173.04C515.91 157.088 515.408 128.638 493.779 128.329C491.057 128.284 491.057 132.664 493.779 132.701L493.786 132.679Z" fill="#0A0C48"/>
<path d="M449.618 211.524C444.596 214.359 439.182 216.892 434.415 220.171C431.504 222.161 429.582 224.694 430.201 228.388C430.659 231.154 434.728 229.978 434.269 227.219C433.774 224.204 440.448 221.679 442.238 220.668L451.75 215.301C454.145 213.959 452.012 210.175 449.618 211.532V211.524Z" fill="#0A0C48"/>
<path d="M347.257 312.11C346.027 298.865 362.431 297.991 371.273 297.787L406.141 297.033C407.083 297.01 407.905 296.363 408.178 295.428C411.175 281.879 415.188 268.594 420.179 255.692C424.663 244.158 431.933 230.476 445.651 230.385C448.366 230.385 448.373 225.99 445.651 226.005C432.115 226.096 423.28 237.63 418.2 249.375C412.007 263.698 407.516 278.964 404.103 294.252L406.141 292.646C391.956 292.948 377.488 292.42 363.355 293.716C353.763 294.591 341.937 300.154 343.036 312.08C343.298 314.855 347.526 314.885 347.264 312.08L347.257 312.11Z" fill="#0A0C48"/>
<path d="M319.427 321.089C320.649 319.39 322.273 318.045 324.143 317.184C325.155 316.568 325.497 315.22 324.907 314.168C324.283 313.157 323.005 312.826 321.996 313.415C319.497 314.65 317.351 316.536 315.766 318.888C315.165 319.929 315.49 321.277 316.494 321.903C317.503 322.492 318.781 322.161 319.405 321.149L319.427 321.089Z" fill="#0A0C48"/>
<path d="M318.321 310.58L321.472 309.344C322.564 308.982 323.2 307.806 322.927 306.653C322.607 305.612 321.435 304.685 320.329 305.145L317.178 306.381C316.115 306.755 315.518 307.923 315.817 309.044C316.117 310.165 317.209 310.849 318.306 310.603L318.321 310.58Z" fill="#0A0C48"/>
<path d="M322.236 301.24L326.304 301.851C327.418 302.133 328.553 301.474 328.902 300.343C329.179 299.31 328.567 297.817 327.447 297.652L323.371 297.033C322.257 296.751 321.122 297.41 320.773 298.541C320.504 299.566 321.115 301.059 322.228 301.232L322.236 301.24Z" fill="#0A0C48"/>
<path d="M328.109 294.222C333.676 294.335 338.363 295.842 343.574 297.614C344.918 298.22 346.454 298.162 347.751 297.456C348.239 297.215 348.304 296.702 348.872 296.611C350.204 296.385 352.111 297.418 353.239 297.983C355.677 299.205 357.824 295.435 355.371 294.214C353.312 293.181 350.946 292.088 348.61 292.066C347.002 292.066 345.896 293.573 344.971 293.626C344.047 293.679 342.06 292.314 341.129 292.005C339.721 291.534 338.29 291.142 336.842 290.829C333.967 290.221 331.043 289.893 328.109 289.849C325.394 289.797 325.394 294.169 328.109 294.229V294.222Z" fill="#0A0C48"/>
<path d="M344.273 328.439C343.634 332.522 344.706 336.693 347.22 339.906C350.328 343.893 354.971 345.281 359.643 346.321C363.093 347.195 366.656 347.488 370.196 347.188C376.207 346.502 381.964 347.105 387.983 347.339C407.844 348.092 434.211 346.653 443.839 325.047C444.967 322.507 441.328 320.283 440.2 322.838C431.758 341.775 409.518 343.192 392.015 343.034C387.095 342.996 382.212 342.446 377.299 342.356C373.871 342.288 370.502 343.109 367.11 342.966C359.643 342.74 346.936 339.951 348.37 329.6C348.749 326.849 344.68 325.658 344.295 328.439H344.273Z" fill="#0A0C48"/>
<path d="M427.544 337.373C426.438 341.504 424.16 348.266 426.635 352.208C428.927 355.872 432.53 358.993 435.499 362.084C438.81 365.514 442.107 368.944 445.106 372.638C446.845 374.809 449.822 371.696 448.089 369.547C443.323 363.614 437.733 358.488 432.712 352.796C431.773 351.734 430.295 350.467 429.932 349.072C429.626 347.912 430.004 346.306 430.179 345.145C430.54 342.904 431.026 340.686 431.635 338.503C432.362 335.79 428.287 334.629 427.559 337.343L427.544 337.373Z" fill="#0A0C48"/>
<path d="M427.727 348.778C404.911 356.151 384.308 369.072 365.866 384.684C356.546 392.638 347.702 401.173 339.382 410.24C331.209 419.075 322.731 428.219 316.094 438.404C309.958 447.872 306.632 459.195 310.999 470.178C315.286 480.906 324.485 488.105 334.63 492.342C346.456 497.28 359.607 499.292 372.212 500.725C386.005 502.292 399.911 502.481 413.739 501.29C428.054 500.061 443.141 497.928 456.728 492.945C466.015 489.545 476.378 483.017 476.291 471.573C476.291 468.754 472.055 468.754 472.07 471.573C472.07 481.758 461.328 486.967 453.271 489.53C441.627 493.231 429.255 495.357 417.137 496.594C392.954 499.074 367.532 497.792 344.047 491.007C333.24 487.886 322.432 482.444 316.574 472.056C310.49 461.245 313.605 449.847 320.045 440.1C326.195 430.79 333.989 422.392 341.478 414.235C348.947 406.056 356.831 398.292 365.094 390.979C383.878 374.447 405.122 360.636 428.789 352.992C431.373 352.155 430.245 347.934 427.661 348.778H427.727Z" fill="#0A0C48"/>
<path d="M323.145 325.318C330.156 327.888 337.386 329.761 344.738 330.912C347.395 331.327 348.545 327.143 345.859 326.69C338.506 325.542 331.276 323.669 324.266 321.097C321.697 320.154 320.591 324.384 323.145 325.318Z" fill="#0A0C48"/>
<path d="M271.634 526.748C272.587 527.17 272.172 530.517 272.362 531.573C272.769 533.397 273.551 535.109 274.654 536.593C277.019 539.933 280.527 542.3 284.028 544.192C293.001 549.04 302.63 552.809 311.894 557.008C314.361 558.131 316.508 554.362 314.026 553.239C304.944 549.107 295.592 545.331 286.728 540.702C282.834 538.667 277.711 535.696 276.539 530.94C275.811 528.082 277.019 524.411 273.744 522.964C271.27 521.871 269.116 525.64 271.612 526.733L271.634 526.748Z" fill="#0A0C48"/>
<path d="M415.412 502.964C420.332 508.339 425.368 513.631 430.121 519.164C432.657 522.05 434.98 525.129 437.071 528.376C438.897 531.286 441.721 535.493 441.59 539.051C441.481 542.315 438.57 545.594 437.275 548.61C436.416 550.653 435.026 553.336 436.11 555.545C438.41 560.212 447.107 559.458 450.978 558.267C453.577 557.467 452.47 553.238 449.858 554.045C447.813 554.671 441.255 555.96 440.091 553.088C439.458 551.527 443.119 546.476 443.926 545.036C446.976 539.616 445.644 535.342 442.922 530.035C436.998 518.486 426.991 509.259 418.403 499.881C416.526 497.83 413.542 500.929 415.412 502.979V502.964Z" fill="#0A0C48"/>
<path d="M468.707 482.338C476.116 494.686 483.51 507.147 487.629 521.139C488.423 523.822 492.505 522.646 491.705 519.978C487.477 505.654 479.959 492.839 472.353 480.129C470.898 477.747 467.259 479.941 468.715 482.338H468.707Z" fill="#0A0C48"/>
<path d="M445.346 538.425C448.985 539.337 452.085 541.553 455.942 541.523C459.799 541.493 463.438 539.887 466.859 538.35C475.046 534.693 482.586 529.748 490.089 524.78C492.374 523.273 490.256 519.503 487.957 521.011C481.603 525.24 475.206 529.454 468.409 532.854C465.112 534.505 461.553 536.292 457.914 536.94C453.657 537.694 450.433 535.191 446.496 534.211C443.854 533.548 442.726 537.769 445.368 538.425H445.346Z" fill="#0A0C48"/>
<path d="M117.186 510.593L116.043 494.378C116.026 493.601 115.618 492.891 114.967 492.505C114.316 492.12 113.518 492.115 112.863 492.493C101.663 498.207 90.3021 488.89 88.1188 477.416C87.1799 472.471 87.4929 466.297 90.8115 462.286C92.5145 460.243 94.8943 459.037 97.507 459.836C99.8359 460.552 102.077 462.588 101.488 465.301C101.262 466.342 101.786 467.819 102.943 467.993C113.445 469.576 109.406 452.282 108.38 446.779C107.288 440.809 106.051 434.024 109.748 428.747C112.936 424.186 118.809 421.925 123.911 420.726C128.612 419.618 134.936 419.362 137.942 424.081C139.492 426.516 139.863 429.72 140.358 432.539C140.94 435.871 141.46 439.218 141.916 442.58C142.862 449.576 143.51 456.625 143.91 463.688C144.15 468.015 144.266 472.614 147.68 475.652C148.154 476.106 148.797 476.319 149.437 476.235C150.078 476.151 150.649 475.777 150.998 475.215C152.498 473.172 152.454 470.895 152.068 468.43C151.85 467.066 151.34 465.543 151.5 464.156C151.821 461.419 154.412 460.816 156.551 461.623C163.829 464.389 164.702 476.903 165.328 483.484C165.619 486.553 166.056 490.051 164.972 492.991C163.436 497.054 159.033 497.25 155.962 499.444C152.578 501.871 150.511 507.427 154.135 510.601C156.202 512.402 159.229 509.327 157.119 507.502C153.349 504.2 163.494 500.718 165.124 499.579C167.474 497.809 169.045 495.142 169.491 492.169C170.219 488.264 169.629 484.163 169.178 480.265C168.819 475.997 167.916 471.797 166.493 467.774C164.309 462.12 159.477 455.298 152.701 457.115C150.079 457.788 148.05 459.939 147.461 462.671C146.785 465.882 149.346 470.307 147.374 473.006L150.693 472.561C148.189 470.3 148.335 466.839 148.153 463.688C147.963 460.301 147.721 456.921 147.425 453.549C146.828 447.086 146.006 440.65 144.958 434.243C144.099 428.966 143.502 422.86 139.339 419.098C136.232 416.286 131.916 415.494 127.906 415.736C118.911 416.293 107.732 420.824 104.312 430.179C102.514 435.095 103.06 440.417 103.911 445.483C104.253 447.511 108.023 464.382 104.115 463.794L105.571 466.485C107.026 459.934 100.811 454.552 94.6906 455.275C87.3255 456.157 83.8613 464.638 83.4974 471.378C82.5731 488.55 98.5769 504.69 115.017 496.307L111.8 494.378L112.943 510.593C113.14 513.39 117.368 513.412 117.171 510.593H117.186Z" fill="#4460F1"/>
<path fill-rule="evenodd" clip-rule="evenodd" d="M265.437 25.82L252.985 22.7065C250.081 21.9804 247.158 23.8303 246.457 26.8383L243.452 39.7371C242.751 42.7451 244.537 45.7722 247.441 46.4982L259.893 49.6117C262.797 50.3378 265.719 48.4879 266.42 45.4799L269.426 32.5811C270.127 29.5731 268.341 26.546 265.437 25.82ZM254 18.3493C248.773 17.0424 243.513 20.3722 242.251 25.7866L239.245 38.6854C237.984 44.0998 241.198 49.5485 246.425 50.8554L258.878 53.9689C264.105 55.2758 269.365 51.946 270.627 46.5316L273.633 33.6328C274.894 28.2184 271.68 22.7697 266.453 21.4628L254 18.3493Z" fill="#F86C59"/>
<path d="M77.701 110.739C82.8749 110.739 87.0692 106.445 87.0692 101.149C87.0692 95.8528 82.8749 94.7559 77.701 94.7559C72.5271 94.7559 68.3328 95.8528 68.3328 101.149C68.3328 106.445 72.5271 110.739 77.701 110.739Z" fill="#F3B23E"/>
<path d="M553.631 49.6413C554.214 49.9202 554.918 49.6608 555.199 49.061C558.558 41.9213 561.959 42.4972 565.424 43.0846C581.972 45.8911 575.57 27.2873 588.776 28.5549C589.426 28.6172 590.049 28.1782 590.164 27.521C590.278 26.8686 589.841 26.2479 589.198 26.1737C573.688 24.3835 580.261 43.1561 565.838 40.7133L565.836 40.7129C561.487 39.9767 557.223 39.255 553.085 48.0464C552.804 48.6462 553.048 49.3624 553.631 49.6413Z" fill="#1ECCAF"/>
<path d="M557.824 59.6849C558.407 59.9639 559.111 59.7044 559.392 59.1046C562.751 51.9649 566.152 52.5408 569.617 53.1283C586.165 55.9348 579.763 37.331 592.97 38.5986C593.619 38.6609 594.242 38.2219 594.357 37.5646C594.471 36.9122 594.034 36.2916 593.391 36.2173C577.881 34.4271 584.454 53.1997 570.032 50.757L570.029 50.7565C565.68 50.0204 561.416 49.2987 557.278 58.09C556.997 58.6899 557.241 59.406 557.824 59.6849Z" fill="#1ECCAF"/>
</svg>
