<svg width="363" height="362" viewBox="0 0 363 362" fill="none" xmlns="http://www.w3.org/2000/svg">
<path d="M211.464 322.221V39.8266C211.464 33.7737 209.059 27.9687 204.778 23.6891C200.498 19.4095 194.692 17.0059 188.639 17.0072H168.84C165.683 16.9995 162.708 18.4841 160.816 21.0113C158.35 24.2935 154.484 26.2248 150.378 26.2252H101.955C97.8498 26.2248 93.9835 24.2935 91.5173 21.0113C89.6265 18.4944 86.6623 17.0132 83.5143 17.0124H63.7146C57.6617 17.011 51.8561 19.4146 47.5755 23.6942C43.295 27.9738 40.8901 33.7788 40.8901 39.8317V322.221C40.8901 328.274 43.295 334.079 47.5755 338.359C51.8561 342.638 57.6617 345.042 63.7146 345.04H188.639" fill="#71DCFB"/>
<path d="M211.464 322.221V314.433C180.365 320.791 120.473 301.427 120.473 301.427L113.327 298.499C113.327 298.499 108.272 303.006 118.059 329.26C120.253 335.146 124.113 340.416 128.774 345.046H188.639" fill="white"/>
<path d="M191.064 362H65.0522C57.0902 362 49.4615 360.975 42.4481 356.796C31.3337 350.054 24.5341 338.009 24.5043 325.01C24.5043 322.688 24.5043 320.396 24.5043 318.048V44.61C24.5043 42.1132 24.5043 39.6165 24.5043 37.1197C24.5146 24.9243 30.4784 13.5021 40.4794 6.523C47.6774 1.5295 55.8649 0.0478501 64.4318 0.0478501H151.198C164.466 0.0478501 177.744 -0.0598127 191.013 0.0478501C205.701 0.170893 219.21 8.94285 224.962 22.5237C227.254 27.9325 227.879 33.572 227.879 39.3602V310.445C227.879 319.965 228.812 330.183 225.116 339.155C219.441 352.926 205.87 361.851 191.064 362C189.085 362 189.085 358.924 191.064 358.924C207.244 358.765 221.44 347.132 224.311 331.101C224.906 327.794 224.824 324.472 224.824 321.134V51.2441C224.824 41.821 225.818 31.5982 221.778 22.8365C216.185 10.6911 203.942 3.16494 190.664 3.12393H176.386H64.0114C54.6345 3.12393 45.7959 5.36947 38.6645 11.8395C31.2922 18.5505 27.5804 27.8556 27.565 37.735C27.565 46.6214 27.565 55.4891 27.565 64.3379V302.124C27.565 309.742 27.5137 317.366 27.565 324.99C27.5979 338.235 35.2782 350.27 47.2775 355.879C53.5784 358.785 60.0945 358.924 66.7901 358.924H191.064C193.022 358.924 193.027 362 191.064 362Z" fill="#4460F1"/>
<path d="M191.064 362H65.0522C57.0902 362 49.4615 360.975 42.4481 356.796C31.3337 350.054 24.5341 338.009 24.5043 325.01C24.5043 322.688 24.5043 320.396 24.5043 318.048V44.61C24.5043 42.1132 24.5043 39.6165 24.5043 37.1197C24.5146 24.9243 30.4784 13.5021 40.4794 6.523C47.6774 1.5295 55.8649 0.0478501 64.4318 0.0478501H151.198C164.466 0.0478501 177.744 -0.0598127 191.013 0.0478501C205.701 0.170893 219.21 8.94285 224.962 22.5237C227.254 27.9325 227.879 33.572 227.879 39.3602V310.445C227.879 319.965 228.812 330.183 225.116 339.155C219.441 352.926 205.87 361.851 191.064 362C189.085 362 189.085 358.924 191.064 358.924C207.244 358.765 221.44 347.132 224.311 331.101C224.906 327.794 224.824 324.472 224.824 321.134V51.2441C224.824 41.821 225.818 31.5982 221.778 22.8365C216.185 10.6911 203.942 3.16494 190.664 3.12393H176.386H64.0114C54.6345 3.12393 45.7959 5.36947 38.6645 11.8395C31.2922 18.5505 27.5804 27.8556 27.565 37.735C27.565 46.6214 27.565 55.4891 27.565 64.3379V302.124C27.565 309.742 27.5137 317.366 27.565 324.99C27.5979 338.235 35.2782 350.27 47.2775 355.879C53.5784 358.785 60.0945 358.924 66.7901 358.924H191.064C193.022 358.924 193.027 362 191.064 362Z" fill="#4460F1"/>
<path d="M209.925 314.434V59.3239C209.925 52.977 209.925 46.6248 209.925 40.2779C209.884 31.1522 204.449 22.8006 195.698 19.7399C191.909 18.4121 188.044 18.5454 184.101 18.5454H171.033C169.662 18.4599 168.286 18.5322 166.932 18.7607C163.22 19.6322 161.805 22.9288 158.918 25C155.017 27.8197 150.685 27.7633 146.137 27.7633H106.471C101.995 27.7633 97.6377 27.9069 93.7567 25.1999C90.8806 23.2056 89.363 19.8424 85.8102 18.8478C84.4003 18.4531 82.9494 18.53 81.5036 18.53H68.4918C64.5955 18.53 60.7555 18.3659 56.9924 19.6169C48.0974 22.575 42.4887 30.9932 42.4477 40.2317V58.6882V301.96V321.55C42.4477 329.634 46.4466 337.073 53.6702 340.98C59.1405 343.938 65.0928 343.503 71.0603 343.503H134.52C136.499 343.503 136.504 346.579 134.52 346.579H69.6556C63.2112 346.579 57.0437 346.609 51.2453 343.138C43.7294 338.637 39.4177 330.511 39.3767 321.826C39.3767 319.776 39.3767 317.725 39.3767 315.674V45.3944C39.3767 43.6 39.3767 41.8057 39.3767 40.0061C39.3914 30.0443 45.3959 21.0688 54.5982 17.2534C58.5715 15.6385 62.6216 15.4693 66.8307 15.4693H80.2425C84.5438 15.4693 88.6453 15.6538 91.8598 19.0324C94.4591 21.765 96.6431 24.1592 100.657 24.6052C102.206 24.724 103.76 24.7531 105.313 24.6924H145.66C150.787 24.6924 155.56 24.8052 159.272 20.5243C162.538 16.751 166.014 15.4693 170.869 15.4693H184.101C187.967 15.4693 191.791 15.3514 195.549 16.469C205.916 19.5451 212.878 29.1937 212.98 39.919V44.9996V314.434C212.98 316.407 209.904 316.413 209.904 314.434H209.925Z" fill="#4460F1"/>
<path d="M140.262 156.369C140.262 156.369 139.385 149.192 143.851 148.597C148.316 148.002 149.264 150.776 151.074 149.515C152.884 148.253 150.449 138.82 152.033 137.087C153.617 135.354 172.725 127.51 176.006 133.637C179.287 139.763 190.945 156.856 190.945 156.856C190.945 156.856 190.976 158.302 188.536 159.645C186.095 160.988 185.67 159.968 185.844 162.357C186.018 164.746 184.65 177.225 184.65 177.225C184.65 177.225 187.29 202.782 184.532 204.787C171.202 214.461 144.179 196.758 144.348 193.174C144.517 189.591 145.373 172.457 144.86 172.283C144.348 172.108 138.196 166.479 138.196 166.479" fill="white"/>
<path d="M133.695 134.165C133.695 134.165 133.49 134.467 133.182 135.006C131.951 137.092 128.978 142.732 129.455 147.884C130.055 154.359 137.109 166.853 139.006 169.478C140.903 172.103 145.563 175.897 145.563 175.897C145.563 175.897 150.367 171.375 149.459 168.007C148.552 164.639 147.886 167.438 143.789 163.111C139.693 158.784 138.575 152.468 141.226 150.294C143.876 148.12 145.891 147.356 146.942 147.894C147.993 148.433 150.577 149.776 150.531 145.234C150.555 142.093 150.8 138.958 151.264 135.852C151.264 135.852 169.587 131.53 170.628 131.207C171.669 130.884 175.627 132.945 177.447 137.267C179.267 141.589 182.343 145.47 186.783 139.558C191.222 133.647 193.232 121.743 183.466 117.667C173.699 113.591 158.457 118.426 153.884 119.507C149.311 120.589 145.353 120.733 144.322 125.019C143.292 129.305 137.494 129.987 135.899 131.238" fill="#06112D"/>
<path d="M254.555 194.287L255.693 180.445C266.741 180.373 292.939 182.439 307.879 181.983C314.39 178.712 317.661 171.134 318.799 163.905C320.174 155.096 319.212 146.08 316.01 137.759C313.574 131.448 308.653 124.942 301.885 124.988C299.009 125.014 296.297 126.259 293.683 127.48L221.671 161.26C220.646 161.737 219.569 162.285 219.026 163.259C218.483 164.234 218.595 165.377 218.724 166.459C219.114 169.66 219.677 172.838 220.41 175.979C220.509 176.744 220.84 177.459 221.359 178.03C221.974 178.584 222.866 178.686 223.691 178.763L242.394 180.511C243.457 185.108 244.516 189.707 245.573 194.307" fill="white"/>
<path d="M302.285 135.026C300.322 146.505 301.47 158.3 305.607 169.186L302.285 135.026Z" fill="#E3F8FE"/>
<path d="M302.213 146.674C303.336 150.673 303.759 154.836 303.464 158.979L302.213 146.674Z" fill="#E3F8FE"/>
<path d="M253.016 194.287L254.154 180.445C254.17 179.602 254.85 178.923 255.692 178.907C267.73 178.855 279.788 179.886 291.805 180.291C295.051 180.399 298.296 180.481 301.546 180.506C302.956 180.506 304.366 180.506 305.771 180.506C307.591 180.475 308.647 179.911 310.052 178.696C315.471 174.005 317.321 166.223 317.742 159.358C318.254 151.268 316.988 142.399 313.128 135.185C311.502 132.15 309.252 129.156 306.119 127.567C302.141 125.547 298.209 127.054 294.451 128.818C277.963 136.508 261.521 144.265 245.059 151.986L231.217 158.481L224.29 161.732C223.335 162.096 222.413 162.54 221.532 163.06C219.856 164.239 220.133 165.469 220.363 167.223C220.681 169.709 221.122 172.191 221.676 174.636C222.004 176.097 222.137 176.841 223.691 177.235C224.828 177.427 225.978 177.532 227.131 177.548L242.393 178.973C243.079 178.989 243.677 179.444 243.875 180.101C244.938 184.698 245.997 189.297 247.053 193.897C247.494 195.825 244.531 196.645 244.09 194.718C243.031 190.121 241.971 185.52 240.912 180.916L242.393 182.044L226.649 180.609C222.742 180.255 219.846 180.275 218.83 175.959C218.272 173.606 217.851 171.216 217.508 168.827C217.231 166.91 216.713 164.726 217.554 162.89C218.164 161.547 219.312 160.768 220.599 160.122C223.127 158.851 225.726 157.712 228.289 156.508L285.53 129.638C292.708 126.28 301.182 120.512 308.883 125.634C315.548 130.074 318.572 138.661 319.998 146.182C321.566 154.431 321.448 163.613 318.388 171.509C317.075 174.903 315.204 178.173 312.492 180.65C311.4 181.644 310.052 182.808 308.652 183.331C307.252 183.854 305.355 183.598 303.869 183.603C287.796 183.664 271.759 181.937 255.677 181.998L257.215 180.46L256.077 194.302C255.913 196.261 252.842 196.276 253.001 194.302L253.016 194.287Z" fill="#4460F1"/>
<path d="M303.766 135.431C301.937 146.647 303.083 158.147 307.088 168.781C307.785 170.637 304.812 171.437 304.125 169.596C299.965 158.431 298.81 146.368 300.777 134.616C301.095 132.668 304.058 133.493 303.74 135.431H303.766Z" fill="#4460F1"/>
<path d="M303.694 146.239C304.816 150.387 305.258 154.689 305.002 158.979C304.884 160.942 301.813 160.958 301.926 158.979C302.176 154.972 301.773 150.951 300.731 147.074C300.218 145.157 303.187 144.342 303.694 146.254V146.239Z" fill="#4460F1"/>
<path d="M143.461 247.816C143.461 247.816 166.265 226.063 166.557 226.063C166.849 226.063 181.615 240.972 182.296 239.777C182.978 238.582 199.01 224.202 208.925 217.86C218.84 211.518 225.972 209.729 230.458 203.889C234.944 198.05 242.7 186.971 243.387 191.226C244.074 195.481 242.054 198.337 245.746 197.501C249.437 196.666 266.96 190.016 265.51 194.287C264.059 198.558 260.752 216.332 256.04 219.665C251.329 222.997 247.802 224.791 246.812 232.374C245.823 239.956 242.711 261.084 238.153 265.329C233.595 269.574 224.931 273.019 220.153 270.123C215.375 267.226 209.325 263.376 209.325 263.376C209.325 263.376 192.668 281.207 180.03 279.669C167.393 278.131 146.983 264.473 143.446 259.008C139.908 253.542 136.068 253.184 143.461 247.816Z" fill="white"/>
<path d="M113.085 299.879C113.151 307.783 114.538 315.62 117.187 323.067C119.899 330.675 124.518 336.935 128.22 344.015C129.132 345.763 126.482 347.322 125.564 345.553C123.59 341.775 121.083 338.319 119.027 334.587C113.185 323.942 110.084 312.011 110.004 299.868C110.004 297.894 113.08 297.889 113.08 299.868L113.085 299.879Z" fill="#4460F1"/>
<path d="M174.597 130.453C179.429 137.231 184.184 144.067 188.859 150.96C190.3 153.083 193.617 156.287 192.674 159.133C191.648 162.209 187.952 161.44 185.819 162.967L186.583 161.64C186.26 173.047 186.07 184.449 185.742 195.851C185.686 197.824 182.615 197.835 182.666 195.851C182.963 185.213 183.179 174.564 183.44 163.921C183.507 161.414 183.584 160.112 186.306 159.338C187.901 158.881 190.474 158.897 188.941 156.574C187.865 154.939 186.752 153.324 185.65 151.704C181.159 145.083 176.589 138.518 171.941 132.007C170.787 130.397 173.453 128.859 174.591 130.469L174.597 130.453Z" fill="#0A0C48"/>
<path d="M165.107 152.991C164.989 153.114 164.989 153.109 165.107 152.991C165.025 153.144 165.025 153.134 165.107 152.96C165.081 153.039 165.061 153.119 165.045 153.201C165.045 153.001 165.081 152.991 165.045 153.17C165.009 152.975 165.004 152.96 165.045 153.139C165.086 153.319 165.091 153.298 165.045 153.139C165.137 153.288 165.127 153.288 165.009 153.139C165.065 153.203 165.125 153.263 165.189 153.319L163.328 153.078L164.025 152.657C164.751 152.301 165.629 152.567 166.034 153.267C166.439 153.967 166.233 154.861 165.563 155.313L164.866 155.733C164.258 156.071 163.501 155.974 162.999 155.492C162.374 154.887 162.014 154.059 162 153.189C161.986 152.318 162.317 151.478 162.923 150.853C163.529 150.288 164.473 150.305 165.059 150.89C165.644 151.476 165.661 152.42 165.096 153.027L165.107 152.991Z" fill="#0A0C48"/>
<path d="M176.33 151.37C176.212 151.499 176.212 151.494 176.33 151.37C176.248 151.524 176.248 151.514 176.33 151.345C176.304 151.424 176.283 151.504 176.268 151.586C176.296 151.384 176.306 151.374 176.299 151.555C176.258 151.355 176.258 151.345 176.299 151.524C176.34 151.704 176.34 151.683 176.268 151.524C176.361 151.668 176.35 151.673 176.238 151.524C176.29 151.589 176.349 151.649 176.412 151.704L174.551 151.463L175.253 151.042C175.979 150.686 176.857 150.952 177.262 151.652C177.668 152.352 177.462 153.246 176.791 153.698L176.094 154.113C175.49 154.457 174.732 154.361 174.233 153.877C173.606 153.272 173.245 152.442 173.231 151.571C173.217 150.7 173.549 149.858 174.156 149.233C174.762 148.668 175.707 148.685 176.292 149.27C176.878 149.856 176.895 150.8 176.33 151.406V151.37Z" fill="#0A0C48"/>
<path d="M146.461 154.334C147.008 154.323 147.536 154.535 147.923 154.922C148.31 155.309 148.523 155.837 148.511 156.385C148.511 157.234 147.823 157.923 146.973 157.923C146.124 157.923 145.435 157.234 145.435 156.385V156.318L145.492 156.728C145.491 156.682 145.482 156.637 145.466 156.595L145.62 156.964C145.548 156.825 145.594 156.877 145.748 157.107C145.902 157.338 146.025 157.307 145.891 157.236L146.261 157.389H146.194L146.604 157.441C146.56 157.433 146.515 157.433 146.471 157.441C145.621 157.441 144.933 156.752 144.933 155.903C144.946 155.059 145.627 154.378 146.471 154.365L146.461 154.334Z" fill="#0A0C48"/>
<path d="M173.207 166.084L166.748 166.766C166.317 166.812 164.466 166.812 164.159 167.048C163.42 167.607 164.307 169.555 164.635 170.124C165.563 171.688 167.891 173.113 169.537 171.662C171.075 170.278 170.7 167.663 170.562 165.838C170.403 163.87 173.479 163.88 173.638 165.838C173.884 168.884 173.802 172.575 170.947 174.462C168.275 176.23 164.748 175.113 162.795 172.806C161.201 170.919 159.719 166.853 161.908 164.864C163.051 163.839 164.912 163.926 166.353 163.777L173.218 163.054C175.186 162.844 175.171 165.92 173.218 166.131L173.207 166.084Z" fill="#0A0C48"/>
<path d="M163.718 168.494C165.984 169.086 168.324 169.347 170.665 169.268C172.644 169.207 172.644 172.283 170.665 172.344C168.049 172.424 165.434 172.125 162.903 171.457C160.991 170.945 161.801 167.997 163.718 168.494Z" fill="#0A0C48"/>
<path d="M139.894 197.594C129.64 203.746 125.538 216.645 127.317 228.047C129.368 241.146 137.833 252.502 147.076 261.566C156.217 270.528 168.322 278.52 181.687 277.275C194.935 276.039 205.419 265.955 213.668 256.388C224.179 244.131 233.058 230.566 240.087 216.03C240.953 214.251 243.604 215.804 242.742 217.568C235.85 231.778 227.215 245.075 217.036 257.152C208.464 267.313 197.79 277.864 184.081 280.043C170.07 282.273 157.053 274.916 147.035 265.765C136.72 256.342 127.271 244.084 124.575 230.103C122.052 217.014 126.461 202.049 138.34 194.938C140.042 193.913 141.59 196.579 139.878 197.594H139.894Z" fill="#0A0C48"/>
<path d="M177.765 241.007C187.593 231.123 199.477 223.31 211.171 215.835C216.811 212.215 222.522 208.873 227.577 204.423C230.428 201.926 232.514 198.957 234.55 195.779C236.287 193.056 237.913 190.221 240.84 188.632C242.578 187.684 244.132 190.339 242.378 191.283C239.076 193.077 237.41 197.137 235.36 200.131C233.602 202.716 231.515 205.06 229.151 207.104C224.25 211.344 218.82 214.579 213.376 218.05C201.656 225.519 189.746 233.287 179.903 243.171C178.503 244.576 176.314 242.402 177.729 240.997L177.765 241.007Z" fill="#0A0C48"/>
<path d="M257.988 195.312C254.609 197 250.922 197.983 247.15 198.204C245.171 198.322 245.182 195.246 247.15 195.128C250.381 194.939 253.541 194.1 256.44 192.662C258.204 191.785 259.767 194.436 257.978 195.312H257.988Z" fill="#0A0C48"/>
<path d="M256.04 203.418H255.809C254.96 203.418 254.271 202.729 254.271 201.88C254.271 201.03 254.96 200.342 255.809 200.342H256.04C256.89 200.342 257.578 201.03 257.578 201.88C257.578 202.729 256.89 203.418 256.04 203.418Z" fill="#0A0C48"/>
<path d="M253.098 208.883C251.124 208.883 251.119 205.807 253.098 205.807C255.077 205.807 255.082 208.883 253.098 208.883Z" fill="#0A0C48"/>
<path d="M249.849 216.148L245.747 217.358L243.871 217.937L242.927 218.214C242.244 218.593 242.117 218.482 242.548 217.88C242.589 219.859 239.518 219.859 239.472 217.88C239.431 216.122 241.01 215.584 242.425 215.158L249.039 213.205C250.935 212.641 251.751 215.609 249.854 216.168L249.849 216.148Z" fill="#0A0C48"/>
<path d="M166.671 227.165L139.294 254.081C137.879 255.47 135.705 253.296 137.12 251.907L164.497 224.991C165.907 223.607 168.086 225.776 166.671 227.165Z" fill="#0A0C48"/>
<path d="M216.759 266.595C221.794 269.943 229.458 271.661 234.354 267.108C236.985 264.647 238.318 260.782 239.563 257.506C240.989 253.775 242.163 249.954 243.08 246.068C243.974 242.234 244.632 238.349 245.049 234.435C245.372 231.533 245.71 228.585 247.023 225.935C249.663 220.613 256.42 219.465 259.025 214.292C259.917 212.523 262.567 214.082 261.68 215.83C258.65 221.844 250.735 222.771 248.894 229.672C247.869 233.563 247.817 237.737 247.115 241.7C246.362 245.947 245.31 250.136 243.967 254.235C241.917 260.494 239.517 268.692 232.986 271.63C227.197 274.239 220.312 272.655 215.206 269.251C213.57 268.159 215.103 265.493 216.744 266.595H216.759Z" fill="#0A0C48"/>
<path d="M260.275 208.078L260.619 207.74C261.002 207.328 261.58 207.159 262.125 207.298C262.67 207.437 263.095 207.863 263.234 208.408C263.374 208.953 263.204 209.53 262.793 209.913L262.449 210.252C261.843 210.817 260.899 210.8 260.313 210.214C259.727 209.628 259.711 208.684 260.275 208.078Z" fill="#0A0C48"/>
<path d="M263.096 204.899C261.122 204.899 261.117 201.823 263.096 201.823C265.075 201.823 265.08 204.899 263.096 204.899Z" fill="#0A0C48"/>
<path d="M267.285 196.486L265.285 197.599C264.809 197.933 264.186 197.971 263.673 197.696C263.161 197.421 262.848 196.881 262.863 196.299C262.879 195.718 263.221 195.195 263.747 194.948L265.746 193.831C266.472 193.474 267.35 193.741 267.756 194.44C268.161 195.14 267.955 196.034 267.285 196.486Z" fill="#0A0C48"/>
<path d="M121.544 231.907L110.547 261.356L105.046 276.08L102.385 283.206C101.667 285.139 99.5757 288.846 101.052 290.789C102.16 292.26 105.179 293.106 106.799 293.865C109.045 294.928 111.304 295.953 113.577 296.941C118.15 298.923 122.788 300.747 127.491 302.411C146.967 309.33 167.303 313.536 187.926 314.91C189.889 315.044 189.905 318.12 187.926 317.986C167.184 316.606 146.726 312.415 127.112 305.528C122.453 303.888 117.853 302.095 113.31 300.15C110.884 299.125 108.477 298.05 106.092 296.925C103.98 295.936 101.575 295.059 99.6936 293.655C96.1048 290.984 97.7813 286.79 99.0681 283.339L105.097 267.19L118.581 231.092C119.268 229.257 122.236 230.067 121.544 231.907Z" fill="#0A0C48"/>
<path d="M204.619 209.944C201.487 205.171 196.006 197.686 189.382 201.372C187.649 202.336 186.096 199.68 187.844 198.722C196.191 194.077 203.137 202.069 207.285 208.391C208.377 210.052 205.716 211.59 204.634 209.929L204.619 209.944Z" fill="#0A0C48"/>
<path d="M334.03 112.12C326.907 118.442 319.467 124.397 311.739 129.961L311.375 127.151C313.927 127.648 316.443 128.316 318.906 129.151C320.157 129.602 321.633 130.361 321.346 131.971C321.039 133.704 318.373 134.908 317.122 135.831L310.175 140.958C308.58 142.132 307.048 139.466 308.637 138.302L313.656 134.601C315.297 133.386 317.414 132.206 318.783 130.674L318.388 132.171C318.347 131.909 314.835 131.145 314.604 131.063C313.277 130.704 311.933 130.392 310.585 130.11C309.237 129.828 309.237 128.008 310.221 127.3C317.733 121.885 324.964 116.091 331.887 109.941C333.358 108.633 335.542 110.802 334.061 112.115L334.03 112.12Z" fill="#0A0C48"/>
<path d="M312.614 151.012L325.944 146.321C327.81 145.664 328.615 148.633 326.759 149.284L313.429 153.975C311.558 154.636 310.753 151.668 312.614 151.012Z" fill="#0A0C48"/>
<path d="M332.814 145.736L333.153 145.393C333.759 144.828 334.703 144.845 335.289 145.43C335.874 146.016 335.891 146.96 335.326 147.566L334.988 147.91C334.382 148.475 333.438 148.458 332.852 147.872C332.266 147.287 332.25 146.342 332.814 145.736Z" fill="#0A0C48"/>
<path d="M336.209 169.571L316.435 166.289C314.486 165.966 315.312 163.003 317.25 163.326L337.024 166.607C338.972 166.93 338.147 169.894 336.209 169.571Z" fill="#0A0C48"/>
<path d="M310.739 163.152L311.082 163.495C311.509 163.875 311.691 164.46 311.553 165.015C311.416 165.57 310.982 166.003 310.427 166.139C309.872 166.275 309.287 166.092 308.909 165.664L308.565 165.326C308 164.72 308.017 163.775 308.603 163.19C309.188 162.604 310.133 162.587 310.739 163.152Z" fill="#0A0C48"/>
<path d="M67.8575 57.3911H124.206C126.185 57.3911 126.185 60.4672 124.206 60.4672H67.8575C65.8837 60.4672 65.8786 57.3911 67.8575 57.3911Z" fill="white"/>
<path d="M67.8575 74.812H124.206C126.185 74.812 126.185 77.8881 124.206 77.8881H67.8575C65.8837 77.8881 65.8786 74.812 67.8575 74.812Z" fill="white"/>
<path d="M67.8574 92.2277H96.0548C98.0286 92.2277 98.0338 95.3037 96.0548 95.3037H67.8574C65.8836 95.3037 65.8784 92.2277 67.8574 92.2277Z" fill="white"/>
<path d="M160.697 95.8831C161.168 98.3905 161.283 100.952 161.041 103.491C160.851 105.439 157.775 105.46 157.965 103.491C158.204 101.227 158.125 98.9404 157.729 96.6982C157.38 94.7654 160.344 93.9349 160.692 95.8831H160.697Z" fill="#4460F1"/>
<path d="M174.457 95.2987C174.375 98.0377 173.746 100.733 172.606 103.225C171.796 105.029 169.146 103.466 169.951 101.687C170.84 99.6753 171.323 97.5077 171.371 95.3089C171.427 93.3351 174.498 93.33 174.447 95.3089L174.457 95.2987Z" fill="#4460F1"/>
<path d="M188.105 99.5899C187.709 102.329 186.429 104.863 184.46 106.808C183.066 108.213 180.872 106.039 182.287 104.635C183.864 103.052 184.869 100.988 185.142 98.7696C185.414 96.8214 188.377 97.6519 188.105 99.5899Z" fill="#4460F1"/>
<path d="M148.374 150.509C145.031 147.597 140.761 150.996 140.802 154.836C140.843 158.845 144.201 161.563 147.677 162.767C149.538 163.408 148.738 166.382 146.861 165.731C141.35 163.824 136.239 158.579 138.079 152.283C139.684 146.792 146.149 144.506 150.548 148.335C152.039 149.638 149.861 151.801 148.374 150.509Z" fill="#0A0C48"/>
<path d="M148.723 150.924C149.112 146.194 149.128 141.44 148.769 136.708C148.769 136.017 149.23 135.41 149.897 135.226C159.935 132.834 169.847 129.987 179.632 126.685C181.514 126.054 182.318 129.018 180.452 129.653C170.677 132.962 160.765 135.809 150.717 138.195L151.845 136.708C152.208 141.44 152.194 146.194 151.804 150.924C151.64 152.878 148.564 152.898 148.728 150.924H148.723Z" fill="#0A0C48"/>
<path d="M183.03 135.493C181.681 136.282 180.238 136.897 178.734 137.323C176.832 137.872 176.017 134.908 177.919 134.36C179.167 134 180.364 133.483 181.482 132.822C183.194 131.827 184.742 134.483 183.02 135.477L183.03 135.493Z" fill="#0A0C48"/>
<path d="M139.899 131.514C130.352 135.97 128.62 147.479 132.439 156.441C134.418 161.106 137.73 165.126 140.683 169.202C141.744 170.668 144.907 176.548 146.507 173C147.502 170.801 146.943 167.017 147.02 164.623C147.076 162.649 150.152 162.644 150.096 164.623C150.003 167.735 150.562 171.857 149.106 174.723C148.122 176.666 145.938 178.02 143.764 177.225C140.96 176.2 139.124 172.257 137.468 169.965C135.331 167.012 133.039 164.105 131.245 160.922C125.21 150.263 125.954 134.631 138.345 128.859C140.129 128.028 141.693 130.679 139.883 131.514H139.899Z" fill="#0A0C48"/>
<path d="M148.106 118.564L147.045 122.968L144.784 121.23C155.894 114.98 171.628 110.659 183.861 116.149C195.97 121.579 192.207 137.467 183.24 144.024C181.641 145.193 180.108 142.527 181.702 141.368C185.839 138.347 188.348 133.584 188.5 128.464C188.623 122.066 184.194 118.882 178.39 117.554C167.716 115.119 155.612 118.651 146.312 123.886C145.773 124.198 145.098 124.154 144.604 123.775C144.109 123.395 143.893 122.755 144.056 122.153L145.112 117.749C145.579 115.826 148.542 116.642 148.081 118.564H148.106Z" fill="#0A0C48"/>
<path d="M150.306 194.964C156.028 199.578 162.764 204.279 170.024 205.961C176.376 207.432 184.43 205.345 186.266 198.296C186.778 196.384 189.731 197.194 189.229 199.116C187.296 206.53 179.391 210.195 172.192 209.426C163.215 208.463 154.972 202.654 148.132 197.122C146.594 195.881 148.784 193.718 150.306 194.948V194.964Z" fill="#0A0C48"/>
<path d="M220.742 224.945C218.528 222.895 214.662 218.47 216.518 215.23C217.502 213.512 219.322 212.072 220.891 210.913C222.286 209.888 224.777 207.965 226.674 208.232C228.345 208.468 230.227 210.585 231.314 211.703C232.657 213.082 234.19 214.733 234.39 216.742C234.569 218.506 233.729 220.121 232.565 221.398C231.907 222.086 231.19 222.716 230.422 223.279C230.186 223.458 227.018 225.417 227.059 225.181L225.577 223.238H225.741L224.203 224.776V224.663C224.044 222.689 227.115 222.7 227.279 224.663V224.776C227.279 225.626 226.59 226.314 225.741 226.314H225.577C225.098 226.313 224.646 226.09 224.356 225.709C224.066 225.328 223.969 224.833 224.095 224.371C224.382 222.7 227.515 221.664 228.709 220.736C230.191 219.578 231.678 218.286 231.027 216.168C230.647 214.953 228.873 213.564 227.951 212.723C227.597 212.4 226.756 211.426 226.315 211.38C225.874 211.334 224.992 211.959 224.593 212.185C223.35 212.883 222.191 213.721 221.137 214.681C219.517 216.168 219.045 217.558 220.194 219.501C220.941 220.722 221.866 221.826 222.937 222.777C224.398 224.115 222.219 226.283 220.763 224.95L220.742 224.945Z" fill="#0A0C48"/>
<path d="M231.289 221.951C233.139 223.458 234.634 225.354 235.668 227.503C236.519 229.282 233.868 230.841 233.012 229.042C232.101 227.128 230.774 225.442 229.126 224.11C228.526 223.509 228.526 222.536 229.126 221.936C229.734 221.355 230.691 221.355 231.3 221.936L231.289 221.951Z" fill="#0A0C48"/>
<path d="M223.876 215.917L224.045 215.743C224.651 215.178 225.596 215.195 226.181 215.78C226.767 216.366 226.784 217.31 226.219 217.916L226.05 218.091C225.444 218.655 224.499 218.639 223.914 218.053C223.328 217.467 223.311 216.523 223.876 215.917Z" fill="#0A0C48"/>
<path d="M154.72 160.599H158.021V157.297H154.72V160.599Z" fill="#E3F8FE"/>
</svg>
