<svg width="669" height="669" viewBox="0 0 669 669" fill="none" xmlns="http://www.w3.org/2000/svg">
<path d="M384.224 61.1946C386.066 69.3637 386.56 77.7792 385.685 86.1077C382.997 82.4558 376.825 82.5654 373.736 85.9032C370.646 89.241 370.632 94.7261 373.005 98.5825C373.823 99.8899 374.868 101.037 375.7 102.329C376.185 103.229 376.778 104.066 377.468 104.82C378.856 106.105 380.886 106.324 382.77 106.471C385.013 106.646 387.445 106.785 389.344 105.587C390.427 104.816 391.344 103.835 392.039 102.702C394.13 99.6826 395.988 96.5085 397.597 93.2069C398.203 91.9726 398.78 90.636 398.59 89.2775C398.218 87.525 396.909 86.1207 395.187 85.6256C393.49 85.1615 391.709 85.0866 389.979 85.4065" fill="#E3F8FE"/>
<path d="M384.224 61.1946C386.066 69.3637 386.56 77.7792 385.685 86.1077C382.997 82.4558 376.825 82.5654 373.736 85.9032C370.646 89.241 370.632 94.7261 373.005 98.5825C373.823 99.8899 374.868 101.037 375.7 102.329C376.185 103.229 376.778 104.066 377.468 104.82C378.856 106.105 380.886 106.324 382.77 106.471C385.013 106.646 387.445 106.785 389.344 105.587C390.427 104.816 391.344 103.835 392.039 102.702C394.13 99.6826 395.988 96.5085 397.597 93.2069C398.203 91.9726 398.78 90.636 398.59 89.2775C398.218 87.525 396.909 86.1207 395.187 85.6256C393.49 85.1615 391.709 85.0866 389.979 85.4065" fill="#E3F8FE"/>
<path d="M458.066 295.879C457.452 296.339 429.99 317.184 423.95 337.897C417.91 358.611 417.377 384.502 427.434 397.788C437.491 411.073 439.171 412.812 441.245 412.797C443.319 412.783 460.651 413.528 463.156 412.067C465.662 410.606 477.706 406.75 479.78 410.343C481.854 413.937 480.598 434.796 498.616 433.613C516.635 432.43 520.345 434.46 522.047 430.107C523.748 425.754 513.07 376.578 512.501 370.443C511.931 364.308 515.108 351.745 517.212 341.878C519.315 332.01 521.776 300.312 518.833 290.532C515.89 280.753 518.833 266.861 510.558 268.738C502.283 270.615 479.152 284.755 479.152 284.755" fill="#E3F8FE"/>
<path d="M432.385 144.37C432.385 144.37 423.408 149.76 423.993 155.661C424.577 161.563 429.836 170.926 432.275 168.078C434.714 165.229 431.954 155.661 434.955 155.661C437.957 155.661 446.641 158.766 450.637 157.853C454.632 156.94 455.421 156.969 455.866 160.862C456.312 164.755 456.852 169.29 456.852 169.29C456.852 169.29 464.265 164.908 465.23 170.247C466.194 175.586 465.894 176.273 463.163 178.493C460.431 180.713 457.049 185.694 457.729 190.96C458.408 196.226 464.959 206.423 463.046 213.186C461.132 219.949 458.401 235.156 464.207 246.199C470.013 257.242 482.853 266.752 492.195 266.649C501.536 266.547 515.925 265.7 511.995 253.802C508.066 241.904 501.295 240.75 503.399 232.446C505.502 224.141 501.127 213.456 496.475 206.152C491.822 198.849 487.849 197.286 491.114 186.9C494.379 176.514 493.166 159.459 486.578 153.456C479.99 147.452 470.349 155.756 470.51 152.937C470.671 150.118 468.319 144.041 465.273 140.922C462.228 137.804 449.205 139.082 443.537 140.66" fill="#06112D"/>
<path d="M296.214 120.23C296.214 120.23 322.273 97.6397 344.418 98.8084C366.563 99.977 371.99 109.91 371.742 116.9C371.493 123.889 367.36 141.82 360.056 144.121C352.752 146.422 342.322 155.624 340.591 171.262C338.86 186.899 338.517 276.918 337.714 287.099C336.91 297.281 345.887 429.091 346.697 439.441C347.508 449.79 356.879 570.017 357.324 575.7C357.77 581.382 359.42 594.397 352.745 598.261C346.069 602.125 329.913 611.167 322.748 605.024C315.583 598.882 315.233 592.214 314.444 582.872C313.655 573.531 315.474 548.8 309.989 544.498C304.503 540.196 288.282 537.406 285.886 543.322C283.491 549.238 283.98 576.963 283.98 576.963C283.98 576.963 284.265 599.152 282.519 601.979C280.774 604.805 274.237 611.685 264.99 607.822C255.744 603.958 242.801 609.012 239.705 603.228C236.608 597.443 237.309 572.552 237.63 568.535C237.906 564.54 237.923 560.532 237.681 556.535C237.484 554.285 232.569 546.865 228.449 556.06C224.33 565.255 224.148 587.123 223.855 590.424C223.563 593.725 222.957 598.181 211.541 598.926C200.125 599.671 188.388 601.789 189.119 594.069C189.849 586.349 190.631 559.179 188.257 556.206C185.883 553.233 175.453 553.818 174.066 564.43C172.678 575.042 171.94 584.837 172.086 587.875C172.232 590.914 172.254 605.097 161.357 605.068C150.46 605.039 133.537 606.259 130.864 598.254C128.191 590.249 131.755 538.195 132.778 532.651C133.8 527.108 140.198 486.594 141.98 483.913C143.762 481.233 155.901 456.539 178.119 445.204C200.337 433.868 209.379 430.844 216.135 429.011C222.891 427.178 252.975 418.64 254.999 415.616C257.022 412.592 269.358 401.9 270.19 387.402C271.023 372.904 276.654 324.436 276.705 323.771C276.756 323.107 279.853 260.484 280.861 259.878C281.869 259.272 291.422 199.125 291.422 199.125L301.524 150.76L306.366 134.232C306.366 134.232 304.54 142.185 297.952 141.243C291.364 140.301 284.52 132.771 296.214 120.23Z" fill="#E3F8FE"/>
<path d="M425.81 444.042H494.984C497.555 444.042 497.562 440.04 494.984 440.04H425.81C423.232 440.04 423.232 444.042 425.81 444.042Z" fill="#4460F1"/>
<path d="M416.754 414.813H427.271C429.849 414.813 429.857 410.803 427.271 410.803H426.687C424.108 410.803 424.101 414.813 426.687 414.813H437.219C439.797 414.813 439.797 410.803 437.219 410.803H426.701C424.123 410.803 424.116 414.813 426.701 414.813H427.286C429.864 414.813 429.871 410.803 427.286 410.803H416.754C414.175 410.803 414.175 414.813 416.754 414.813Z" fill="#4460F1"/>
<path d="M400.978 385.577H411.079C413.657 385.577 413.664 381.574 411.079 381.574H409.969C407.391 381.574 407.383 385.577 409.969 385.577H420.07C422.648 385.577 422.655 381.574 420.07 381.574H409.983C407.405 381.574 407.398 385.577 409.983 385.577H411.094C413.672 385.577 413.679 381.574 411.094 381.574H400.978C398.4 381.574 398.392 385.577 400.978 385.577Z" fill="#4460F1"/>
<path d="M395.259 356.347H406.645C409.216 356.347 409.224 352.344 406.645 352.344C404.067 352.344 404.067 356.347 406.645 356.347H417.995C420.574 356.347 420.581 352.344 417.995 352.344H406.616C404.038 352.344 404.038 356.347 406.616 356.347C409.187 356.347 409.194 352.344 406.616 352.344H395.259C392.688 352.344 392.681 356.347 395.259 356.347Z" fill="#4460F1"/>
<path d="M389.693 327.117H428.593C431.171 327.117 431.179 323.107 428.593 323.107H389.693C387.115 323.107 387.115 327.117 389.693 327.117Z" fill="#4460F1"/>
<path d="M374.553 268.621H384.369C386.947 268.621 386.955 264.618 384.369 264.618H382.828C380.25 264.618 380.25 268.621 382.828 268.621H392.651C395.222 268.621 395.23 264.618 392.651 264.618H382.828C380.25 264.618 380.25 268.621 382.828 268.621H384.369C386.947 268.621 386.955 264.618 384.369 264.618H374.553C371.975 264.618 371.967 268.621 374.553 268.621Z" fill="#4460F1"/>
<path d="M368.754 239.406H377.109C379.68 239.406 379.687 235.397 377.109 235.397H371.997C369.418 235.397 369.411 239.406 371.997 239.406H380.352C382.93 239.406 382.93 235.397 380.352 235.397H371.997C369.418 235.397 369.411 239.406 371.997 239.406H377.109C379.68 239.406 379.687 235.397 377.109 235.397H368.754C366.175 235.397 366.168 239.406 368.754 239.406Z" fill="#4460F1"/>
<path d="M403.337 210.191H410.911C413.489 210.191 413.489 206.188 410.911 206.188H402.716C400.138 206.188 400.131 210.191 402.716 210.191H410.283C412.861 210.191 412.868 206.188 410.283 206.188H402.716C400.138 206.188 400.131 210.191 402.716 210.191H410.911C413.489 210.191 413.489 206.188 410.911 206.188H403.337C400.759 206.188 400.759 210.191 403.337 210.191Z" fill="#4460F1"/>
<path d="M500.951 470.826C515.201 516.716 530.261 562.342 544.043 608.363C544.774 610.824 548.652 609.78 547.907 607.297C534.095 561.283 519.035 515.649 504.815 469.76C504.084 467.306 500.184 468.357 500.951 470.826Z" fill="#4460F1"/>
<path d="M434.795 161.987C431.073 166.82 426.706 171.12 421.816 174.768C421.293 175.093 420.945 175.636 420.867 176.247C420.789 176.857 420.99 177.47 421.415 177.916C423.451 180.259 426.163 181.913 429.179 182.649L427.718 180.713C427.858 191.737 429.732 202.671 433.269 213.113C434.101 215.53 437.972 214.493 437.132 212.047C433.693 201.961 431.864 191.397 431.713 180.743C431.704 179.848 431.111 179.065 430.252 178.814C427.911 178.249 425.81 176.952 424.256 175.111L423.847 178.259C429.032 174.438 433.672 169.926 437.636 164.85C439.199 162.834 436.387 159.985 434.802 162.016L434.795 161.987Z" fill="#0A0C48"/>
<path d="M431.252 157.392C438.373 161.175 446.846 160.503 454.675 160.7L452.74 159.239L454.514 172.006C454.821 174.198 457.735 173.562 458.371 172.006C459.196 170.005 461.409 168.435 462.987 171.335C463.462 172.226 463.221 173.737 462.987 174.614C462.305 177.001 460.4 178.842 457.991 179.442C455.508 180.136 456.567 183.999 459.057 183.305C464.857 181.684 469.217 175.016 466.361 169.143C463.44 163.059 456.552 165.901 454.485 170.947H458.342L456.574 158.18C456.33 157.318 455.543 156.722 454.646 156.72C447.634 156.544 439.622 157.348 433.246 153.959C430.967 152.754 428.944 156.208 431.223 157.421L431.252 157.392Z" fill="#0A0C48"/>
<path d="M430.727 168.253C427.645 164.265 424.84 159.408 425.848 154.157C427.002 148.117 433.152 145.911 438.337 144.18C443.5 142.438 448.887 141.453 454.332 141.258C457.203 141.163 459.993 140.82 462.242 142.88C464.12 144.743 465.61 146.96 466.625 149.402C467.691 151.747 471.146 149.716 470.079 147.386C468.807 144.483 466.984 141.854 464.711 139.644C462.6 137.665 460.409 137.3 457.605 137.234C449.84 137.049 442.113 138.384 434.861 141.163C429.186 143.355 423.686 146.181 422.137 152.55C420.589 158.919 423.408 165.207 427.301 170.247C428.85 172.256 432.334 170.247 430.756 168.224L430.727 168.253Z" fill="#0A0C48"/>
<path d="M475.228 144.742C475 146.976 474.466 149.168 473.644 151.257C472.964 153.017 475.17 154.244 476.565 153.521C485.592 148.913 491.757 162.863 491.728 169.59C491.728 177.536 486.659 184.613 487.703 192.691C488.492 198.87 492.436 203.859 495.876 208.818C497.892 211.739 499.922 214.771 500.916 218.211C502.106 222.359 501.551 226.705 501.391 230.948C501.266 234.33 501.288 237.821 502.384 241.071C503.479 244.322 505.692 246.914 507.496 249.836C513.339 259.09 504.005 265.429 495.175 264.896C479.107 263.925 465.653 251.063 462.695 235.499C461.837 230.658 461.926 225.697 462.958 220.891C463.798 216.677 464.748 212.499 463.908 208.197C463.009 203.603 460.92 199.476 460.365 194.766C459.905 190.312 459.949 185.821 460.497 181.378C460.774 178.814 456.765 178.836 456.494 181.378C455.899 186.229 455.899 191.134 456.494 195.985C457.115 200.609 459.226 204.75 460.029 209.264C460.906 214.274 458.941 219.219 458.349 224.141C457.817 228.69 458.064 233.297 459.08 237.763C462.732 254.065 476.74 266.868 493.408 268.775C501.142 269.658 510.294 267.219 512.996 258.995C515.801 250.464 507.073 245.381 505.692 237.734C504.838 233.074 505.824 228.239 505.692 223.564C505.607 219.546 504.568 215.606 502.661 212.068C498.936 205.078 491.706 198.921 491.567 190.493C491.457 184.759 494.415 179.428 495.372 173.862C496.184 169.282 495.678 164.566 493.911 160.263C490.815 152.9 482.781 145.867 474.564 150.067L477.485 152.323C478.409 149.888 478.992 147.337 479.216 144.742C479.465 142.179 475.462 142.2 475.214 144.742H475.228Z" fill="#0A0C48"/>
<path d="M440.418 184.481C442.984 184.636 445.524 183.89 447.598 182.371C448.528 181.795 448.848 180.594 448.328 179.632C447.77 178.679 446.548 178.353 445.589 178.901C444.117 180.036 442.28 180.592 440.426 180.464C437.855 180.318 437.862 184.321 440.426 184.467L440.418 184.481Z" fill="#0A0C48"/>
<path d="M447.496 172.942L446.81 172.547L446.291 171.663L446.24 171.284L446.517 170.276L447.073 169.721C446.12 170.279 445.794 171.501 446.342 172.46C446.913 173.396 448.12 173.717 449.081 173.19C449.871 172.741 450.311 171.859 450.194 170.958C450.077 170.057 449.426 169.317 448.548 169.085C447.484 168.817 446.398 169.435 446.087 170.488C445.805 171.551 446.425 172.644 447.482 172.949L447.496 172.942Z" fill="#0A0C48"/>
<path d="M439.462 172.679L438.798 172.263L438.286 170.313V170.364L439.207 169.166L439.535 169.034C438.468 169.327 437.841 170.429 438.133 171.496C438.425 172.563 439.527 173.191 440.594 172.898C441.534 172.653 442.2 171.817 442.23 170.846C442.213 169.857 441.512 169.014 440.543 168.815C440.022 168.693 439.474 168.766 439.002 169.02C438.552 169.282 438.222 169.709 438.082 170.21C437.94 170.732 438.011 171.289 438.279 171.759C438.538 172.215 438.97 172.546 439.477 172.679H439.462Z" fill="#0A0C48"/>
<path d="M397.159 210.279C404.462 209.322 406.31 221.417 408.224 226.457C410.576 232.636 413.183 238.713 415.995 244.716C416.725 246.272 419.289 245.856 419.647 244.242C422.883 229.758 433.524 212.302 449.169 209.132C451.696 208.621 450.629 204.75 448.11 205.269C431.121 208.702 419.304 227.399 415.783 243.175L419.435 242.7C415.606 234.529 412.21 226.162 409.261 217.634C407.34 212.09 404.148 205.378 397.144 206.306C394.624 206.635 394.588 210.644 397.144 210.308L397.159 210.279Z" fill="#0A0C48"/>
<path d="M380.615 214.384C374.728 221.95 376.773 231.599 379.257 240.107C382.274 250.607 386.697 260.65 392.403 269.965C397.392 277.999 404.024 285.486 413.27 288.509C421.607 291.334 430.825 289.173 437.037 282.937C443.902 276.254 447.605 267.044 454.354 260.244C456.173 258.418 453.339 255.584 451.52 257.417C445.078 263.903 441.412 272.485 435.182 279.11C427.016 287.786 415.067 287.341 406.018 280.044C397.209 272.952 391.637 261.588 387.408 251.341C385.083 245.783 383.208 240.048 381.798 234.191C380.498 228.633 379.673 222.045 383.434 217.218C384.997 215.202 382.186 212.353 380.601 214.384H380.615Z" fill="#0A0C48"/>
<path d="M380.645 210.191C384.167 205.492 389.431 202.408 395.252 201.631C397.772 201.317 397.809 197.308 395.252 197.629C388.363 198.389 382.072 201.896 377.804 207.358C376.241 209.366 379.06 212.222 380.638 210.191H380.645Z" fill="#0A0C48"/>
<path d="M394.039 194.758C394.215 195.9 394.053 197.068 393.572 198.118C393.048 199.08 393.369 200.283 394.302 200.857C395.262 201.4 396.48 201.076 397.041 200.126C397.992 198.121 398.296 195.87 397.91 193.684C397.612 192.622 396.513 192 395.449 192.289C394.397 192.601 393.778 193.687 394.047 194.751L394.039 194.758Z" fill="#0A0C48"/>
<path d="M372.494 194.502C374.51 195.612 374.459 200.477 375.087 202.471C375.697 204.557 376.843 206.448 378.41 207.956C380.287 209.716 383.128 206.889 381.236 205.122C377.234 201.368 379.513 193.808 374.51 191.04C372.253 189.791 370.23 193.231 372.494 194.502Z" fill="#0A0C48"/>
<path d="M377.855 189.339C377.926 189.376 377.994 189.418 378.06 189.463C378.388 189.668 377.84 189.244 377.986 189.412L378.154 189.58C378.286 189.712 378.308 189.872 378.111 189.493C378.184 189.631 378.286 189.763 378.366 189.902C378.542 190.201 378.264 189.58 378.366 189.807C378.366 189.902 378.432 189.997 378.454 190.092C378.839 191.034 379.871 191.536 380.85 191.26C381.83 190.983 382.445 190.015 382.281 189.011C381.914 187.692 381.054 186.565 379.878 185.863C378.93 185.383 377.773 185.724 377.237 186.641C376.701 187.558 376.972 188.734 377.855 189.325V189.339Z" fill="#0A0C48"/>
<path d="M383.983 186.396L384.289 186.593C384.508 186.725 384.048 186.359 384.231 186.549C384.414 186.739 384.574 186.885 384.735 187.068C384.896 187.25 384.56 186.783 384.684 187.017C384.742 187.119 384.815 187.214 384.874 187.323C384.914 187.412 384.96 187.497 385.012 187.579C384.917 187.345 384.896 187.302 384.947 187.44C384.998 187.579 384.998 187.579 385.02 187.645C385.21 188.335 385.754 188.871 386.447 189.051C387.14 189.231 387.877 189.028 388.379 188.518C388.882 188.008 389.074 187.269 388.883 186.578C388.396 185.054 387.374 183.757 386.006 182.927C385.058 182.447 383.9 182.788 383.364 183.705C382.828 184.622 383.099 185.798 383.983 186.389V186.396Z" fill="#0A0C48"/>
<path d="M439.565 311.946C463.662 292.923 490.276 277.325 518.65 265.597C520.994 264.625 519.964 260.747 517.583 261.733C488.586 273.719 461.389 289.664 436.767 309.113C434.744 310.712 437.593 313.495 439.594 311.946H439.565Z" fill="#0A0C48"/>
<path d="M431.968 316.986C420.486 331.433 414.439 349.897 416.031 368.368C417.612 386.081 425.582 402.615 438.454 414.886C440.316 416.668 443.157 413.841 441.288 412.052C415.834 387.745 412.803 347.465 434.802 319.82C436.387 317.819 433.575 314.97 431.968 316.986Z" fill="#0A0C48"/>
<path d="M439.871 415.47C451.652 415.719 463.841 414.922 475.184 411.541C476.23 411.217 476.844 410.136 476.587 409.072L473.125 385.97L471.394 374.416C470.714 369.887 469.517 365.651 472.467 361.7C476.674 356.054 481.721 350.978 486.154 345.5C490.587 340.118 494.629 334.426 498.25 328.468C499.579 326.277 496.117 324.232 494.795 326.445C490.648 333.228 485.971 339.673 480.808 345.719C478.274 348.765 475.695 351.752 473.095 354.754C470.999 357.179 468.465 359.633 467.252 362.664C466.142 365.432 466.464 368.266 466.88 371.144C467.508 375.482 468.18 379.813 468.83 384.144L472.723 410.138L474.118 407.677C463.089 410.971 451.33 411.709 439.871 411.468C437.292 411.417 437.292 415.419 439.871 415.47Z" fill="#0A0C48"/>
<path d="M442.917 415.697C444.129 418.239 445.145 420.861 446.196 423.483C446.81 425.01 448.555 427.683 447.606 428.771C446.656 429.859 444.107 430.685 442.822 431.744C441.307 432.887 440.033 434.319 439.075 435.958C437.753 438.5 438.264 441.531 441.033 442.787C444.378 444.306 448.818 442.656 452.185 442.006L467.428 439.084C470.635 438.471 476.653 438.587 478.771 435.746C480.721 433.132 478.771 429.107 478.041 426.419L473.337 409.854C472.607 407.378 468.772 408.394 469.481 410.921L472.804 422.651C473.374 424.659 476.784 432.146 474.688 433.606C473.41 434.519 470.08 434.49 468.451 434.797L462.9 435.878L450.433 438.273C448.608 438.715 446.76 439.049 444.896 439.274C443.552 439.369 443.143 439.632 442.851 438.346C442.559 437.061 443.881 436.155 444.787 435.308C446.759 433.511 450.863 432.642 452.09 430.356C453.23 428.296 451.623 426.178 450.79 424.272C449.257 420.752 447.993 417.136 446.335 413.667C445.225 411.344 441.77 413.375 442.88 415.69L442.917 415.697Z" fill="#0A0C48"/>
<path d="M515.392 284.237C518.304 295.776 519.439 307.691 518.759 319.572C518.401 325.639 517.554 331.668 516.224 337.598C514.946 343.331 512.93 348.824 511.44 354.499C508.439 365.98 511.747 376.914 514.084 388.22C516.611 400.466 519.136 412.712 521.658 424.958C522.177 427.478 526.04 426.419 525.522 423.892L517.941 387.154C516.714 381.187 515.194 375.198 514.325 369.158C513.383 362.584 514.917 356.559 516.852 350.336C523.681 328.373 524.886 305.571 519.255 283.178C518.627 280.68 514.764 281.717 515.392 284.237Z" fill="#0A0C48"/>
<path d="M487.726 434.861C496.183 436.271 505.028 435.752 513.515 434.861C516.904 434.504 521.199 434.452 524.361 433.116C528.437 431.385 525.953 426.265 525.208 423.183C524.602 420.678 520.738 421.722 521.345 424.242C521.622 425.381 522.805 429.143 522.367 429.537C521.732 430.107 519.146 430.129 518.277 430.267C514.961 430.757 511.623 431.085 508.278 431.319C501.851 431.772 495.175 432.049 488.792 431.012C486.265 430.589 485.184 434.452 487.726 434.876V434.861Z" fill="#0A0C48"/>
<path d="M517.436 434.198C519.136 439.957 520.501 445.81 521.526 451.727C522.038 454.706 523.192 458.49 522.848 461.477C522.447 464.997 517.005 465.012 514.142 465.312C508.205 465.845 502.234 465.874 496.292 465.399C495.24 465.333 493.59 465.553 492.691 464.946C490.558 463.486 492.187 462.536 493.297 461.448C495.396 459.457 497.755 457.759 500.309 456.401C501.091 455.944 501.469 455.018 501.229 454.144C498.78 448.166 496.754 442.023 495.167 435.761C494.532 433.263 490.668 434.3 491.303 436.827C492.895 443.088 494.921 449.231 497.366 455.21L498.286 452.946C494.466 455.05 484.241 460.98 488.207 466.56C489.835 468.868 493.005 469.19 495.583 469.35C500.389 469.685 505.209 469.768 510.023 469.599C514.314 469.517 518.578 468.901 522.717 467.766C525.996 466.75 527.099 464.844 526.829 461.455C525.929 451.852 524.07 442.363 521.278 433.131C520.548 430.663 516.691 431.714 517.414 434.198H517.436Z" fill="#0A0C48"/>
<path d="M411.204 137.819C414.337 133.488 420.041 133.057 424.927 132.706C427.484 132.524 427.506 128.514 424.927 128.696C418.354 129.164 411.846 130.121 407.749 135.788C406.237 137.877 409.706 139.878 411.204 137.811V137.819Z" fill="#0A0C48"/>
<path d="M403.542 119.859C400.804 122.688 399.978 126.86 401.432 130.52C402.886 134.179 406.35 136.646 410.283 136.825C412.854 137.022 412.847 133.013 410.283 132.823C407.944 132.695 405.897 131.207 405.054 129.021C404.21 126.835 404.728 124.358 406.376 122.692C408.129 120.801 405.302 117.96 403.542 119.859Z" fill="#0A0C48"/>
<path d="M404.032 109.063C405.432 110.039 406.628 111.28 407.552 112.715C408.962 114.862 412.431 112.861 411.014 110.699C409.723 108.694 408.05 106.962 406.091 105.601C405.471 105.186 404.671 105.15 404.016 105.507C403.36 105.864 402.956 106.555 402.967 107.301C402.978 108.047 403.402 108.726 404.068 109.063H404.032Z" fill="#0A0C48"/>
<path d="M413.248 109.26C413.754 110.139 414.07 111.115 414.176 112.123C414.203 113.217 415.083 114.098 416.177 114.125C417.279 114.117 418.17 113.225 418.178 112.123C418.041 110.412 417.543 108.75 416.718 107.244C415.461 104.995 411.999 107.011 413.256 109.26H413.248Z" fill="#0A0C48"/>
<path d="M420.984 114.555C422.503 119.032 421.831 124.685 421.977 129.374C422.05 131.953 426.06 131.96 425.98 129.374C425.826 124.335 426.491 118.324 424.848 113.489C424.022 111.064 420.151 112.108 420.984 114.555Z" fill="#0A0C48"/>
<path d="M349.751 155.348C360.95 214.927 373.366 274.258 387 333.34C400.633 392.423 415.484 451.193 431.553 509.653C440.624 542.666 450.075 575.569 459.906 608.363C460.636 610.824 464.507 609.78 463.762 607.297C446.379 549.227 430.175 490.816 415.148 432.065C400.122 373.314 386.325 314.287 373.758 254.985C366.659 221.5 359.944 187.932 353.614 154.281C353.139 151.754 349.276 152.82 349.751 155.348Z" fill="#4460F1"/>
<path d="M470.877 590.205H540.043C542.621 590.205 542.629 586.202 540.043 586.202H470.877C468.298 586.202 468.298 590.205 470.877 590.205Z" fill="#4460F1"/>
<path d="M461.856 560.976H531.022C533.601 560.976 533.608 556.966 531.022 556.966H461.856C459.278 556.966 459.278 560.976 461.856 560.976Z" fill="#4460F1"/>
<path d="M452.836 531.739H519.541C522.119 531.739 522.127 527.737 519.541 527.737H452.836C450.258 527.737 450.258 531.739 452.836 531.739Z" fill="#4460F1"/>
<path d="M443.815 502.509H511.455C514.034 502.509 514.041 498.506 511.455 498.506H443.815C441.237 498.506 441.237 502.509 443.815 502.509Z" fill="#4460F1"/>
<path d="M434.796 473.28H502.881C505.46 473.28 505.467 469.27 502.881 469.27H434.796C432.218 469.27 432.218 473.28 434.796 473.28Z" fill="#4460F1"/>
<path d="M380.675 297.88H427.419C429.997 297.88 430.004 293.878 427.419 293.878H380.675C378.104 293.878 378.096 297.88 380.675 297.88Z" fill="#4460F1"/>
<path d="M356.287 180.976H402.593C405.171 180.976 405.171 176.966 402.593 176.966H356.287C353.716 176.966 353.709 180.976 356.287 180.976Z" fill="#4460F1"/>
<path d="M329.972 121.575C326.415 121.859 323.866 126.161 326.167 129.236C327.489 131.004 330.506 131.34 331.433 128.981C332.405 126.483 330.009 124.598 327.679 125.088C326.622 125.393 326 126.484 326.277 127.549C326.588 128.605 327.679 129.224 328.745 128.951L328.103 126.95L329.111 126.673C329.541 126.621 329.111 127.074 329.3 126.673C329.213 126.884 329.3 126.439 329.3 126.578C329.3 126.716 329.395 126.212 329.41 126.169C329.522 125.915 329.721 125.71 329.972 125.592C331.068 125.568 331.95 124.686 331.974 123.59C331.966 122.488 331.074 121.597 329.972 121.589V121.575Z" fill="#4460F1"/>
<path d="M343.28 116.703C339.73 116.988 337.181 121.29 339.475 124.365C340.797 126.132 343.82 126.475 344.741 124.109C345.719 121.611 343.316 119.727 340.994 120.216C340.304 120.405 339.767 120.948 339.585 121.641C339.404 122.333 339.606 123.069 340.115 123.572C340.624 124.076 341.363 124.269 342.053 124.08L341.41 122.079L342.425 121.808C342.856 121.75 342.425 122.203 342.615 121.808C342.527 122.013 342.615 121.567 342.615 121.706C342.615 121.845 342.703 121.341 342.717 121.304C342.836 121.053 343.033 120.848 343.28 120.72C344.375 120.697 345.258 119.814 345.281 118.719C345.281 117.611 344.387 116.711 343.28 116.703V116.703Z" fill="#4460F1"/>
<path d="M327.065 146.466C331.403 147.72 336.065 147.125 339.949 144.822C342.14 143.515 340.154 140.053 337.926 141.36C334.982 143.136 331.425 143.587 328.132 142.602C325.648 141.872 324.589 145.757 327.065 146.466Z" fill="#4460F1"/>
<path d="M271.104 394.787C280.986 329.783 280.073 263.633 292.343 198.9C296.473 177.239 301.799 155.824 308.294 134.751C308.966 132.56 305.775 131.26 304.642 133.21C303.014 136 301.071 139.535 297.718 140.39C294.147 141.295 291.466 138.198 290.787 134.904C289.246 127.498 297.602 121.334 302.722 117.536C313.582 109.502 327.138 102.98 340.752 101.811C351.533 100.891 365.351 103.571 368.996 115.396C373.13 128.806 361.32 141.434 351.533 148.716C346.719 152.302 342.33 156.02 340.088 161.76C337.473 168.451 337.59 176.156 337.166 183.219C336.144 199.623 335.43 216.037 335.026 232.461C334.203 265.571 334.617 298.662 336.268 331.733C337.889 364.133 341.22 396.364 343.929 428.683C344.148 431.232 348.151 431.254 347.939 428.683C345.222 396.364 341.899 364.133 340.277 331.733C338.383 294.333 338.089 256.894 339.394 219.416C339.715 210.243 340.129 201.072 340.635 191.903C341.11 183.343 340.781 173.994 343.009 165.668C345.237 157.342 352.183 153.682 358.347 148.453C363.794 143.971 368.169 138.325 371.15 131.932C376.088 120.808 373.524 107.866 362.437 101.672C351.701 95.6613 338.159 97.1075 326.904 100.701C318.479 103.383 310.492 107.283 303.196 112.277C297.302 116.331 290.437 121.224 287.676 128.09C285.397 133.75 287.077 141.441 293.19 143.968C299.99 146.78 305.051 140.411 308.083 135.204L304.431 133.655C293.605 169.151 285.983 205.545 281.658 242.401C277.852 274.172 276.18 306.134 273.536 338.015C271.987 356.632 270.045 375.22 267.24 393.691C266.853 396.218 270.709 397.343 271.096 394.757L271.104 394.787Z" fill="#4460F1"/>
<path d="M317.402 106.587C317.753 103.103 317.205 99.6629 317.402 96.1863C317.483 94.4115 317.687 92.2423 318.746 90.7377C319.031 90.336 319.82 90.2995 319.002 90.8619C318.198 91.318 317.358 91.7064 316.489 92.0232C314.145 93.0749 316.175 96.5223 318.512 95.4779C321.346 94.207 324.984 92.4906 324.662 88.773C324.587 87.4316 323.863 86.2111 322.721 85.5028C321.579 84.7946 320.164 84.6875 318.929 85.2161C311.063 88.3932 314.05 100.328 313.414 106.587C313.159 109.151 317.169 109.129 317.424 106.587H317.402Z" fill="#4460F1"/>
<path d="M337.196 98.8089C336.94 95.3104 336.02 91.0157 336.969 87.583C337.155 86.7844 337.514 86.0363 338.021 85.3919C338.218 85.1654 340.212 83.376 339.57 84.5373C338.927 85.6986 336.436 86.3925 335.1 86.9987C332.755 88.0504 334.786 91.5051 337.123 90.4534C339.935 89.1825 344.478 87.9263 344.69 84.1502C344.85 81.3675 342.345 79.673 339.745 79.9798C330.922 81.0242 332.762 92.8636 333.171 98.8089C333.354 101.365 337.364 101.387 337.174 98.8089H337.196Z" fill="#4460F1"/>
<path d="M233.43 537.765C234.811 547.749 236.272 557.785 235.804 567.886C235.6 572.224 235.366 576.548 235.307 580.886C235.264 584.159 235.307 587.46 235.307 590.71C235.359 594.179 235.212 597.97 236.717 601.198C239.828 607.859 248.264 608.166 254.626 608.721C258.837 609.086 263.064 609.233 267.291 609.159C271.147 609.094 275.69 609.305 279.349 607.896C286.456 605.171 285.192 595.764 285.455 589.673L286.485 562.328C286.653 557.77 286.814 553.212 287.003 548.655C287.084 546.581 287.003 544.141 288.939 542.812C290.305 541.87 292.481 541.768 294.088 541.548C300.72 540.635 307.096 543.63 308.98 550.459C310.156 554.754 310.215 559.603 310.689 564.022C311.215 569.032 311.69 574.05 312.114 579.075C312.474 583.379 312.791 587.686 313.063 591.995C313.282 595.406 312.946 599.299 314.794 602.352C318.636 608.663 327.379 607.37 333.609 606.683C340.73 605.894 350.064 604.536 355.951 600.11C361.684 595.815 360.333 587.854 359.829 581.661L357.711 554.199C354.419 511.837 351.113 469.475 347.793 427.113C347.595 424.564 343.586 424.542 343.79 427.113C346.566 462.741 349.343 498.366 352.124 533.989C353.504 551.649 355.242 569.325 356.258 587.007C356.455 590.462 356.586 594.311 353.701 596.743C350.517 599.409 345.127 600.453 341.153 601.366C336.899 602.345 332.56 602.907 328.197 603.046C323.968 603.185 318.775 603.521 317.57 598.408C316.62 594.384 316.949 589.644 316.642 585.517C316.316 580.964 315.936 576.421 315.503 571.888C315.094 567.584 314.646 563.289 314.159 559.004C313.75 555.352 313.669 551.452 312.413 548.005C308.871 538.276 296.907 534.712 287.821 538.904C281.453 541.826 282.935 550.839 282.709 556.558L281.73 582.464C281.569 586.783 281.409 591.1 281.248 595.414C281.168 597.356 281.292 599.569 280.518 601.381C279.232 604.419 276.581 604.624 273.638 604.857C265.085 605.529 255.919 605.464 247.468 603.82C242.1 602.776 239.755 600.008 239.434 594.537C239.178 590.476 239.281 586.35 239.31 582.281C239.354 577.636 239.566 573.006 239.799 568.368C240.318 557.734 238.755 547.187 237.301 536.684C236.951 534.142 233.094 535.223 233.445 537.75L233.43 537.765Z" fill="#4460F1"/>
<path d="M266.32 398.015C259.747 411.651 245.592 418.078 231.876 422.446C217.173 427.128 202.149 430.305 187.965 436.579C173.782 442.853 160.722 451.727 151.585 464.362C141.791 477.94 137.372 494.534 134.4 510.77C131.003 529.38 128.162 548.37 127.417 567.294C126.961 577.191 127.384 587.11 128.681 596.933C129.104 599.986 129.754 603.163 132.53 604.967C135.554 606.932 139.71 606.625 143.135 606.756C147.89 606.932 152.674 607.26 157.436 607.267C161.044 607.267 164.791 606.88 167.8 604.704C173.409 600.658 173.365 593.018 173.241 586.817C173.073 578.301 173.635 569.288 177.36 561.473C178.682 558.705 182.247 552.54 185.446 557.01C186.519 558.515 186.658 561.853 186.943 563.584C187.438 566.634 187.777 569.708 187.958 572.794C188.3 578.396 188.143 584.018 187.491 589.592C187.045 593.39 186.76 596.896 189.769 599.818C192.457 602.425 196.029 602.41 199.549 602.462C204.776 602.513 209.994 602.023 215.121 601.001C218.583 600.322 222.322 599.314 224.002 595.888C225.887 592.054 225.353 586.576 225.675 582.427C226.113 576.716 226.522 571.004 226.989 565.3C227.355 560.794 228.45 551.861 235.133 553.015C237.653 553.446 238.734 549.59 236.192 549.151C229.115 547.939 224.645 553.855 223.542 560.224C222.037 568.872 222.016 577.965 221.351 586.707C221.19 588.796 221.351 591.396 220.672 593.42C219.839 595.837 217.619 596.341 215.406 596.867C210.427 597.962 205.34 598.489 200.243 598.437C195.057 598.437 190.522 597.831 191.259 591.521C191.869 586.71 192.161 581.864 192.136 577.015C192.058 572.63 191.688 568.255 191.026 563.92C190.522 560.553 190.39 556.2 187.856 553.643C183.59 549.334 178.178 552.183 175.513 556.492C171.671 562.744 170.093 570.15 169.48 577.381C169.158 581.222 169.253 585.042 169.29 588.891C169.326 592.894 169.29 597.933 166.149 600.891C163.111 603.74 158.341 603.309 154.514 603.163C149.548 602.987 144.559 602.885 139.593 602.6C136.978 602.447 134.37 602.367 133.253 599.511C132.464 597.502 132.413 594.939 132.187 592.857C131.646 587.905 131.369 582.931 131.296 577.958C131.003 558.588 133.786 539.299 136.846 520.221C139.476 503.81 142.748 486.96 151.162 472.404C159.32 458.271 172.306 448.345 186.877 441.436C202.427 434.059 219.211 430.926 235.418 425.47C249.251 420.817 263.172 413.74 269.789 400.009C270.9 397.701 267.452 395.663 266.327 397.986L266.32 398.015Z" fill="#4460F1"/>
<path d="M147.605 595.588V596.669C147.605 597.775 148.501 598.671 149.606 598.671C150.711 598.671 151.607 597.775 151.607 596.669V595.588C151.607 594.483 150.711 593.587 149.606 593.587C148.501 593.587 147.605 594.483 147.605 595.588H147.605Z" fill="#4460F1"/>
<path d="M154.543 595.479L154.769 596.991C154.912 597.493 155.241 597.921 155.69 598.189C156.16 598.455 156.715 598.528 157.238 598.393C157.738 598.249 158.164 597.92 158.428 597.473C158.674 596.996 158.746 596.449 158.633 595.924L158.407 594.42C158.273 593.913 157.942 593.481 157.486 593.222C157.02 592.952 156.466 592.878 155.945 593.017C155.444 593.163 155.017 593.491 154.747 593.938C154.505 594.413 154.433 594.957 154.543 595.479Z" fill="#4460F1"/>
<path d="M162.146 593.068C161.78 593.78 161.613 594.578 161.664 595.376C161.677 595.903 161.885 596.405 162.248 596.786C162.82 597.359 163.68 597.532 164.428 597.223C165.176 596.914 165.665 596.186 165.666 595.376V595.135C165.666 595.048 165.703 594.69 165.666 595.041C165.63 595.391 165.666 595.077 165.666 595.041C165.666 595.004 165.834 594.639 165.615 595.128C165.867 594.656 165.937 594.108 165.812 593.587C165.675 593.083 165.344 592.652 164.892 592.389C164.016 591.922 162.613 592.09 162.153 593.12L162.146 593.068Z" fill="#4460F1"/>
<path d="M200.184 591.753V592.571C200.184 593.677 201.08 594.573 202.185 594.573C203.29 594.573 204.186 593.677 204.186 592.571V591.753C204.186 590.648 203.29 589.752 202.185 589.752C201.08 589.752 200.184 590.648 200.184 591.753Z" fill="#4460F1"/>
<path d="M207.604 589.804L207.181 591.265C206.886 592.332 207.513 593.435 208.579 593.73C209.646 594.024 210.75 593.398 211.044 592.331L211.461 590.907C211.746 589.843 211.125 588.747 210.066 588.445C209.004 588.172 207.916 588.789 207.604 589.841V589.804Z" fill="#4460F1"/>
<path d="M214.229 589.724V591.185C214.229 592.29 215.125 593.186 216.23 593.186C217.336 593.186 218.232 592.29 218.232 591.185V589.724C218.232 588.619 217.336 587.723 216.23 587.723C215.125 587.723 214.229 588.619 214.229 589.724Z" fill="#4460F1"/>
<path d="M254.539 596.443V597.867C254.539 598.972 255.435 599.868 256.54 599.868C257.646 599.868 258.542 598.972 258.542 597.867V596.443C258.542 595.337 257.646 594.441 256.54 594.441C255.435 594.441 254.539 595.337 254.539 596.443Z" fill="#4460F1"/>
<path d="M262.522 595.757L263.018 598.795C263.316 599.861 264.42 600.485 265.487 600.19C266.531 599.869 267.143 598.789 266.882 597.729L266.385 594.69C266.09 593.626 264.989 593.001 263.924 593.295C262.877 593.613 262.261 594.694 262.522 595.757Z" fill="#4460F1"/>
<path d="M271.25 595.018C271.178 595.815 271.227 596.617 271.396 597.399C271.691 598.464 272.791 599.091 273.857 598.801C274.904 598.484 275.52 597.403 275.26 596.34C275.26 596.267 275.26 596.194 275.216 596.128C275.172 596.063 275.216 596.033 275.216 596.304C275.234 596.16 275.234 596.016 275.216 595.873C275.212 595.587 275.227 595.302 275.26 595.018C275.262 594.487 275.051 593.977 274.676 593.601C274.3 593.225 273.79 593.015 273.258 593.017C272.728 593.017 272.218 593.227 271.842 593.601C271.493 593.994 271.287 594.493 271.257 595.018H271.25Z" fill="#4460F1"/>
<path d="M332.09 593.42C331.732 592.996 331.965 593.259 332.046 593.383C332.126 593.507 332.126 593.515 332.046 593.383C331.965 593.252 331.973 593.208 332.046 593.383V593.493C332.097 593.704 332.09 593.639 332.046 593.303C332.035 593.417 332.035 593.532 332.046 593.646C332.054 594.748 332.945 595.639 334.047 595.647C335.144 595.624 336.028 594.743 336.056 593.646C336.08 592.535 335.672 591.459 334.916 590.644C334.131 589.868 332.868 589.868 332.082 590.644C331.329 591.439 331.329 592.684 332.082 593.478L332.09 593.42Z" fill="#4460F1"/>
<path d="M340.526 591.447C340.665 591.601 340.628 591.549 340.409 591.294C340.45 591.352 340.487 591.413 340.519 591.476L340.395 591.199C340.418 591.266 340.438 591.334 340.453 591.403C340.57 591.776 340.395 590.907 340.453 591.294C340.453 591.506 340.453 591.44 340.453 591.082C340.439 591.151 340.422 591.219 340.402 591.286C340.14 592.339 340.765 593.409 341.811 593.698C342.856 593.987 343.942 593.391 344.258 592.353C344.633 591.033 344.286 589.612 343.345 588.613C342.56 587.837 341.297 587.837 340.511 588.613C339.755 589.406 339.755 590.654 340.511 591.447H340.526Z" fill="#4460F1"/>
<path d="M348.823 586.692V589.811C348.823 590.916 349.719 591.812 350.825 591.812C351.93 591.812 352.826 590.916 352.826 589.811V586.692C352.826 585.587 351.93 584.691 350.825 584.691C349.719 584.691 348.823 585.587 348.823 586.692Z" fill="#4460F1"/>
<path d="M148.437 468.05C145.102 472.515 141.46 476.745 137.54 480.707C134.173 484.111 128.929 491.057 124.013 486.492C120.362 483.125 120.084 477.157 122.019 472.841C123.765 468.933 127.862 467.611 129.893 464.076C131.273 461.71 131.273 458.547 129.024 456.729C127.629 455.604 125.876 455.538 124.233 455.034C121.797 454.363 119.694 452.818 118.324 450.696C117.028 448.579 116.983 445.925 118.207 443.765C118.67 442.942 119.359 442.27 120.194 441.829L123.546 443.378C123.933 443.947 123.619 445.978 123.546 446.657C123.188 450.185 122.29 453.559 124.495 456.685C125.956 458.774 129.44 456.773 127.95 454.662C125.489 451.163 128.403 446.292 127.402 442.311C126.482 438.659 123.195 436.673 119.573 437.776C111.414 440.259 112.116 451.215 117.593 455.918C119.102 457.176 120.837 458.133 122.706 458.737C123.531 459.022 124.824 459.03 125.562 459.468C127.57 460.68 126.409 462.345 125.051 463.624C121.852 466.655 119.069 468.736 117.681 473.162C115.402 480.254 118.324 491.385 127.088 492.211C132.164 492.693 136.24 487.668 139.468 484.476C143.974 479.99 148.136 475.174 151.921 470.066C153.469 468.006 149.993 466.005 148.466 468.05H148.437Z" fill="#4460F1"/>
<path d="M295.805 188.571C302.064 189.93 305.219 197.957 303.985 203.844C302.751 209.73 293.49 213.032 288.647 215.164C286.295 216.209 288.333 219.656 290.67 218.619C297.726 215.486 308.075 211.315 308.126 202.222C308.163 194.823 304.715 186.417 296.827 184.693C294.315 184.145 293.241 188.009 295.768 188.557L295.805 188.571Z" fill="#4460F1"/>
<path d="M337.239 158.619C328.029 160.992 319.761 168.369 320.28 178.58C320.492 182.736 322.281 186.965 326.013 189.105C328.701 190.646 334.376 192.596 336.969 190.193C337.598 189.542 337.723 188.555 337.276 187.768L337.13 187.469C335.976 185.161 332.521 187.191 333.675 189.492L333.821 189.791L334.135 187.366C333.821 187.651 330.082 186.497 329.578 186.315C327.984 185.823 326.612 184.789 325.699 183.393C323.99 180.669 323.932 177.024 324.801 174.015C326.605 167.748 332.28 164.038 338.306 162.49C340.803 161.847 339.766 157.983 337.239 158.626V158.619Z" fill="#4460F1"/>
<path d="M312.224 228.384C304.745 231.169 299.428 237.872 298.42 245.789C297.529 253.699 302.89 260.09 311.18 258.936C319.47 257.782 326.08 250.42 328.117 242.553C329.629 236.71 328.599 224.155 319.513 226.938C317.059 227.668 318.104 231.554 320.58 230.802C327.489 228.676 324.049 242.955 322.683 245.584C320.185 250.39 315.095 255.079 309.376 255.079C302.744 255.116 301.378 248.805 302.941 243.518C304.469 238.37 308.289 234.216 313.291 232.262C315.672 231.342 314.635 227.471 312.224 228.399V228.384Z" fill="#4460F1"/>
<path d="M324.122 209.665C326.693 209.665 326.7 205.662 324.122 205.662C321.543 205.662 321.536 209.665 324.122 209.665Z" fill="#4460F1"/>
<path d="M308.104 168.954C310.675 168.954 310.682 164.952 308.104 164.952C305.526 164.952 305.519 168.954 308.104 168.954Z" fill="#4460F1"/>
<path d="M282.746 277.042C288.319 276.677 295.732 284.733 297.543 289.677C299.881 296.076 294.951 300.56 292.92 306.067C291.007 311.275 295.447 315.891 294.206 320.901C292.833 326.452 284.156 330.177 279.81 333.003C277.619 334.406 279.664 337.875 281.833 336.465C287.143 333.011 295.126 329.468 297.646 323.187C298.807 320.266 298.296 317.381 297.463 314.466C296.879 312.429 295.951 310.216 296.47 308.061C296.915 306.213 298.362 304.511 299.253 302.861C302.59 296.623 303.292 290.152 299.019 284.185C295.433 279.175 289.451 272.594 282.746 273.04C280.182 273.208 280.168 277.21 282.746 277.042Z" fill="#4460F1"/>
<path d="M314.115 277.904C316.693 277.904 316.693 273.895 314.115 273.895C311.537 273.895 311.53 277.904 314.115 277.904Z" fill="#4460F1"/>
<path d="M332.923 288.341C326.466 292.979 321.909 300.392 321.814 308.506C321.762 312.75 324.399 314.598 327.518 316.928C329.315 318.251 330.745 320.011 331.674 322.04C332.36 323.348 332.93 324.29 334.486 324.524C337.005 324.889 338.094 321.032 335.552 320.66C335.231 320.609 334.31 318.074 334.055 317.687C333.377 316.705 332.561 315.826 331.63 315.08C329.044 312.889 325.955 311.903 325.853 307.966C325.685 301.685 330.052 295.316 334.946 291.803C337.02 290.342 335.026 286.836 332.923 288.348V288.341Z" fill="#4460F1"/>
<path d="M312.136 343.85C304.657 347.429 297.01 352.695 294.877 361.218C294.081 364.381 293.767 368.442 296.491 370.779C299.069 372.97 303.181 373.16 306.359 372.605C308.425 372.241 310.405 371.498 312.202 370.414C313.788 369.428 315.446 368.561 317.161 367.821C320.594 366.324 322.39 362.708 323.902 359.465C325.414 356.223 327.715 351.519 326.495 347.779C325.385 344.391 321.784 343.134 318.629 342.528C316.109 342.053 315.028 345.91 317.562 346.392C318.877 346.64 320.484 346.83 321.543 347.743C323.296 349.248 322.639 351.395 322.047 353.286C321.227 355.889 320.107 358.386 318.709 360.729C318.074 361.803 317.365 363.22 316.233 363.87C315.386 364.366 314.247 364.403 313.312 364.841C310.836 366.039 309.192 367.836 306.38 368.493C303.568 369.15 299.12 369.34 298.346 365.732C297.725 362.964 299.697 359.093 301.195 356.968C304.328 352.447 309.309 349.627 314.159 347.305C316.482 346.195 314.451 342.74 312.136 343.85Z" fill="#4460F1"/>
<path d="M315.445 327.782V327.11C315.381 326.049 314.502 325.222 313.44 325.222C312.378 325.222 311.499 326.049 311.435 327.11V327.782C311.499 328.842 312.378 329.669 313.44 329.669C314.502 329.669 315.381 328.842 315.445 327.782Z" fill="#4460F1"/>
<path d="M291.423 265.057C294.001 265.057 294.008 261.054 291.423 261.054C288.837 261.054 288.844 265.057 291.423 265.057Z" fill="#4460F1"/>
<path d="M274.939 392.369C279.164 394.046 282.21 397.806 282.973 402.288C283.703 406.612 281.213 409.84 280.782 413.974C280.592 415.946 281.286 418.444 280.57 420.306C279.503 423.096 274.792 423.352 272.346 423.228C267.233 422.906 263.939 415.851 261.288 412.148C259.827 410.074 256.321 412.075 257.826 414.171C261.186 418.853 264.779 426.31 271.184 427.128C276.976 427.858 284.2 426.069 284.733 419.364C284.864 417.757 284.58 416.136 284.733 414.529C284.923 412.55 285.88 410.841 286.457 408.978C287.245 406.316 287.331 403.495 286.705 400.791C285.436 395.158 281.404 390.549 275.99 388.542C273.58 387.622 272.536 391.464 274.924 392.406L274.939 392.369Z" fill="#4460F1"/>
<path d="M312.385 397.605C305.22 402.791 296.156 411.877 301.327 421.591C303.006 424.688 306.071 426.789 309.565 427.237C311.412 427.409 313.269 427.052 314.919 426.207C316.489 425.476 315.934 425.659 317.453 425.958C318.245 426.191 319.068 426.299 319.893 426.28C324.166 425.849 327.861 421.218 329.943 417.822C332.427 413.849 333.656 409.219 333.471 404.536C333.284 400.696 331.107 397.231 327.728 395.397C324.349 393.562 320.257 393.624 316.935 395.56C314.707 396.853 316.723 400.322 318.951 399.015C321.586 397.462 324.917 397.755 327.24 399.745C329.746 401.936 329.76 405.523 329.242 408.554C328.709 411.68 327.459 414.639 325.59 417.201C324.605 418.564 323.446 419.791 322.142 420.853C320.309 422.314 319.542 421.781 317.563 421.583C315.029 421.342 314.101 422.679 311.72 423.198C308.55 423.928 305.519 421.569 304.511 418.713C301.853 411.176 309.054 404.946 314.43 401.053C316.497 399.555 314.503 396.079 312.407 397.598L312.385 397.605Z" fill="#4460F1"/>
<path d="M307.827 448.433C298.113 448.433 289.67 461.945 291.248 470.914C291.561 472.903 292.424 474.765 293.738 476.289C295.849 478.612 298.391 479.306 299.194 482.695C300.305 487.384 301.583 490.999 306.652 492.482C315.226 494.987 327.35 491.021 330.228 482.015C331.126 479.174 331.039 476.172 331.689 473.251C332.419 470.22 334.128 467.897 335.757 465.326C338.262 461.368 339.489 457.205 337.181 452.83C334.698 448.126 330.184 443.028 324.699 442.21C319.053 441.363 313.612 444.328 309.595 448.053C307.696 449.806 310.53 452.632 312.422 450.887C316.073 447.491 322.048 444.314 326.949 447.155C331.711 449.915 336.064 456.343 333.34 461.601C331.243 465.655 328.417 468.723 327.613 473.368C326.664 478.802 326.642 483.936 321.179 486.843C317.33 488.896 311.436 490.13 307.236 488.494C302.225 486.537 304.103 480.606 300.998 477.085C299.618 475.515 297.478 474.807 296.266 473.083C294.432 470.49 294.922 466.977 295.966 464.194C297.821 459.272 301.882 452.435 307.806 452.45C310.384 452.45 310.391 448.447 307.806 448.44L307.827 448.433Z" fill="#4460F1"/>
<path d="M346.581 481.073C341.22 483.162 339.869 488.033 338.43 493.131C336.816 498.865 332.441 503.934 332.382 510.076C332.301 512.358 332.976 514.602 334.303 516.46C336.158 518.914 339.599 519.673 341.096 522.376C342.44 524.808 342.717 527.13 345.033 528.949C347.121 530.592 349.729 531.301 352.271 531.922C354.812 532.543 355.842 528.672 353.337 528.058C351.146 527.525 348.787 527.028 347.143 525.385C345.5 523.742 345.281 521.266 343.944 519.352C341.439 515.759 336.312 515.371 336.385 510.076C336.451 505.614 339.489 501.823 341.103 497.828C342.768 493.701 342.812 486.814 347.676 484.937C350.057 484.009 349.02 480.138 346.617 481.073H346.581Z" fill="#4460F1"/>
<path d="M303.678 537.874C306.286 533.44 310.361 528.671 316.094 529.971C318.442 530.537 320.559 531.812 322.157 533.623C323.617 535.259 324.238 537.384 325.589 539.086C327.05 540.941 329.417 541.642 329.497 544.352C329.577 547.062 327.094 549.815 324.983 551.057C323.186 552.109 321.083 552.255 319.213 553.102C317.621 553.832 314.743 557.134 313.056 556.754C310.551 556.177 309.477 560.033 311.99 560.618C315.035 561.348 316.708 559.821 318.972 558.054C321.894 555.775 325.765 555.702 328.715 553.299C333.098 549.735 335.654 542.68 330.906 538.458C329.373 537.124 328.094 535.523 327.13 533.733C326.362 532.388 325.408 531.159 324.297 530.081C322.075 527.916 319.252 526.473 316.197 525.939C308.951 524.778 303.605 530.11 300.223 535.865C298.909 538.056 302.371 540.109 303.678 537.888V537.874Z" fill="#4460F1"/>
<path d="M249.587 450.608C243.824 450.236 240.822 454.991 238.821 459.68C236.703 464.632 234.556 470.38 237.243 475.558C239.814 480.51 244.014 480.766 248.929 480.079C252.464 479.59 254.824 481.927 258.191 482.073C260.445 482.113 262.623 481.251 264.238 479.677C268.766 475.426 267.62 468.985 270.512 463.96C271.973 461.359 274.858 460.395 276.056 457.518C276.889 455.392 277.02 453.055 276.428 450.849C275.255 446.172 271.254 442.747 266.451 442.311C263.885 442.089 261.317 442.721 259.147 444.108C256.73 445.678 255.145 448.176 252.647 449.63C250.419 450.93 252.428 454.392 254.663 453.092C257.65 451.353 259.629 447.847 262.909 446.73C265.118 445.947 267.567 446.254 269.514 447.559C271.461 448.864 272.676 451.013 272.791 453.355C272.944 457.452 268.547 459.095 266.824 462.404C265.261 465.406 264.998 468.744 264.07 471.95C263.449 474.068 262.609 476.266 260.542 477.377C258.351 478.56 256.598 477.501 254.473 476.69C250.821 475.288 247.644 477.216 244.08 476.42C238.967 475.258 239.741 468.649 240.998 464.924C242.32 460.994 244.445 454.282 249.565 454.611C252.136 454.771 252.128 450.769 249.565 450.608H249.587Z" fill="#4460F1"/>
<path d="M278.962 487.917C281.54 487.917 281.548 483.914 278.962 483.914C276.377 483.914 276.384 487.917 278.962 487.917Z" fill="#4460F1"/>
<path d="M262.281 502.159C256.328 505.548 253.626 513.524 256.912 519.688C258.68 523.026 262.668 526.532 266.152 528.022C269.431 529.424 272.908 528.022 275.493 525.831C278.962 522.909 279.196 519.659 280.679 515.722C282.14 511.924 284.689 509.93 283.213 505.497C280.416 497.068 269.811 497.09 263.749 501.56C261.696 503.065 263.69 506.549 265.772 505.015C268.219 503.211 270.979 501.955 274.076 502.561C277.173 503.167 280.54 506.015 279.576 509.558C279.072 511.413 277.421 512.793 276.822 514.67C276.034 517.117 275.939 519.316 274.237 521.426C272.046 524.107 269.511 525.246 266.312 523.515C264.202 522.376 261.441 519.863 260.367 517.672C258.227 513.29 260.199 507.944 264.304 505.606C266.546 504.336 264.53 500.874 262.281 502.144V502.159Z" fill="#4460F1"/>
<path d="M299.457 516.839C302.035 516.839 302.042 512.837 299.457 512.837C296.871 512.837 296.878 516.839 299.457 516.839Z" fill="#4460F1"/>
<path d="M239.011 535.865C242.444 532.732 247.483 536.464 250.441 538.59C252.326 539.948 254.721 541.84 254.758 544.433C254.758 546.565 253.019 548.187 251.763 549.713C249.966 551.904 248.937 556.403 246.205 557.221C243.284 558.091 239.851 555.965 237.762 558.806C237.303 559.592 237.432 560.588 238.076 561.231L238.273 561.399C238.931 562.011 239.906 562.137 240.698 561.713L240.983 561.582C242.02 561.1 242.13 559.741 241.713 558.843L241.64 558.689C240.53 556.36 237.075 558.39 238.186 560.705L238.259 560.859L238.989 558.12L238.704 558.251L241.136 558.565L240.939 558.397L241.253 560.829C240.917 561.275 245.402 561.355 245.723 561.326C246.782 561.259 247.822 561.012 248.798 560.596C251.055 559.551 251.8 557.952 252.742 555.804C254.626 551.517 259.403 548.676 258.673 543.439C257.942 538.4 253.049 535.237 249.002 532.915C244.956 530.592 240.026 529.577 236.206 533.061C234.3 534.799 237.141 537.625 239.04 535.894L239.011 535.865Z" fill="#4460F1"/>
<path d="M278.064 556.557C270.76 557.134 259.849 565.496 262.726 573.779C264.464 578.848 268.628 577.672 272.776 578.892C274.726 579.454 276.355 580.944 278.488 580.352C280.379 579.819 280.379 577.957 281.796 577.109C283.987 575.787 281.994 572.325 279.78 573.655C279.112 574.139 278.511 574.708 277.991 575.349C276.662 576.591 276.676 576.08 274.975 575.349C272.783 574.414 268.774 575.408 267.138 573.691C262.332 568.63 274.171 560.939 278.093 560.625C280.642 560.42 280.664 556.418 278.093 556.622L278.064 556.557Z" fill="#4460F1"/>
<path d="M241.655 579.951C242.152 579.878 243.218 582.069 243.313 582.251C244.204 583.887 245.198 586.035 243.817 587.773C243.057 588.564 243.057 589.815 243.817 590.607C244.453 591.169 238.705 596.107 238.252 596.45C236.258 598.086 239.106 600.905 241.086 599.284C243.737 597.093 250.895 591.52 246.651 587.766V590.599C250.201 586.108 247.418 575.086 240.589 576.08C238.047 576.452 239.128 580.308 241.655 579.943V579.951Z" fill="#4460F1"/>
<path d="M332.222 571.609C330.425 566.343 340.782 559.719 341.841 567.067C341.965 567.972 342.155 569.754 341.717 570.58C341.103 571.726 338.905 572.04 337.802 572.398C336.699 572.756 334.815 573.859 333.705 573.245C332.923 572.815 332.477 572.07 331.513 571.69C329.125 570.718 328.088 574.611 330.447 575.553C331.053 575.794 331.528 576.97 332.244 577.321C333.154 577.698 334.166 577.757 335.114 577.489C337.912 576.901 340.627 575.974 343.199 574.728C346.851 572.888 346.442 566.57 344.857 563.458C339.986 553.964 325.429 564.189 328.329 572.676C329.154 575.101 333.025 574.063 332.193 571.609H332.222Z" fill="#4460F1"/>
<path d="M184.269 442.633C186.293 447.447 190.266 452.902 195.955 453.282C197.145 453.316 198.329 453.112 199.439 452.683C201.82 451.953 203.413 452.457 205.75 453.1C211.248 454.57 217.112 452.959 221.088 448.885C223.082 446.818 224.294 443.999 226.463 442.108C228.457 440.362 231.116 440.486 232.489 438.01C234.169 434.964 234.906 431.159 235.447 427.785C235.848 425.265 231.992 424.184 231.59 426.726C231.189 429.268 230.772 432.094 229.677 434.373C228.472 436.885 226.266 437.119 224.316 438.697C220.949 441.421 219.546 445.869 215.69 448.089C213.161 449.553 210.176 450.022 207.32 449.404C205.355 448.966 203.551 447.863 201.477 447.892C199.169 447.892 197.321 449.828 194.969 449.068C191.719 448.016 189.331 444.562 188.082 441.596C187.103 439.252 183.225 440.282 184.226 442.655L184.269 442.633Z" fill="#4460F1"/>
<path d="M250.93 432.298H250.521C249.416 432.298 248.52 433.194 248.52 434.299C248.52 435.404 249.416 436.3 250.521 436.3H250.967C252.072 436.3 252.968 435.404 252.968 434.299C252.968 433.194 252.072 432.298 250.967 432.298H250.93Z" fill="#4460F1"/>
<path d="M197.935 469.058C202.208 469.262 206.773 469.058 210.98 469.839C215.953 470.782 217.02 475.076 215.888 479.488C214.924 483.278 212.521 486.558 211.133 490.202C210.468 491.955 210.351 493.774 209.833 495.549C209.066 498.178 206.32 498.616 203.844 498.755C199.754 498.982 195.028 497.513 193.619 493.233C192.457 489.633 195.715 487.741 195.423 484.469C195.13 481.197 191.04 481.445 190.398 478.392C189.353 473.623 194.78 471.001 198.395 469.818C200.835 469.021 199.79 465.15 197.329 465.954C192.859 467.415 187.987 469.927 186.636 474.835C186.101 476.802 186.221 478.889 186.979 480.781C187.342 481.744 187.905 482.62 188.63 483.351C188.995 483.702 190.2 484.213 190.456 484.622C191.186 485.798 190.719 485.849 190.076 487.303C189.693 488.185 189.446 489.121 189.346 490.078C189.136 492.309 189.623 494.549 190.741 496.491C193.173 500.764 197.972 502.699 202.719 502.758C207.876 502.831 212.535 501.341 213.821 495.98C214.637 492.593 215.845 489.313 217.422 486.207C218.637 483.97 219.525 481.569 220.058 479.079C220.789 474.974 220.058 470.358 216.479 467.751C211.666 464.216 203.544 465.297 197.935 465.034C195.357 464.909 195.364 468.912 197.935 469.036V469.058Z" fill="#4460F1"/>
<path d="M231.532 493.357C227.807 496.154 223.184 500.544 225.653 505.708C226.215 506.876 227.208 507.665 227.917 508.717C228.625 509.769 228.983 510.966 229.962 511.821C231.773 513.42 234.278 513.34 236.418 512.493C240.844 510.74 244.212 505.956 244.664 501.267C245.117 496.578 241.305 492.283 236.513 494.394C234.162 495.424 236.192 498.879 238.536 497.849C242.188 496.228 239.895 503.845 239.311 504.817C238.303 506.475 235.148 510.105 232.898 508.863C232 508.374 231.854 507.322 231.306 506.489C230.67 505.532 229.845 504.948 229.421 503.86C228.216 500.778 231.357 498.47 233.548 496.819C235.586 495.293 233.592 491.809 231.532 493.357Z" fill="#4460F1"/>
<path d="M195.233 525.099C197.504 525.289 200.594 524.785 202.536 526.085C204.771 527.546 205.319 530.986 205.129 533.389C204.735 538.502 199.038 543.351 194.524 539.035C193.429 537.983 192.844 536.763 191.325 536.215C188.9 535.339 186.212 537.238 184.503 534.397C180.954 528.415 187.929 523.281 193.356 525.486C195.744 526.458 196.781 522.565 194.422 521.63C187.206 518.708 179.215 524.091 179.771 531.994C179.99 535.127 181.67 538.728 184.788 539.904C187.03 540.751 189.17 539.597 191.172 541.219C192.45 542.248 193.166 543.307 194.772 543.965C201.645 546.748 208.182 541.138 209.029 534.397C209.46 530.979 208.788 526.925 206.466 524.252C203.544 520.856 199.264 521.396 195.203 521.06C192.64 520.841 192.654 524.844 195.203 525.063L195.233 525.099Z" fill="#4460F1"/>
<path d="M224.33 565.197C221.536 563.564 219.258 561.177 217.757 558.31C216.705 556.272 216.61 555.52 217.516 553.548C217.965 552.686 218.301 551.771 218.516 550.823C219.086 547.902 217.698 544.396 220.014 541.971C221.737 540.16 229.509 537.195 231.356 539.89C232.817 542.008 236.265 540.007 234.811 537.867C231.802 533.441 226.594 534.675 222.219 536.267C218.568 537.596 215.42 539.853 214.77 543.899C214.251 547.157 214.967 549.333 213.397 552.416C212.389 554.402 212.469 555.819 213.229 557.908C214.932 562.427 218.141 566.222 222.314 568.652C224.506 569.996 226.536 566.534 224.33 565.197Z" fill="#4460F1"/>
<path d="M191.727 567.819C194.714 567.089 198.892 566.081 198.921 570.61C198.921 571.939 198.264 572.421 198.658 573.838C199.221 575.854 199.695 577.249 198.227 579.082C196.759 580.915 194.079 581.835 191.837 582.624C189.419 583.471 190.456 587.342 192.896 586.481C196.073 585.37 199.469 584.129 201.572 581.368C202.599 580.065 203.235 578.497 203.406 576.847C203.53 575.269 202.712 573.925 202.77 572.465C202.829 571.004 203.581 569.938 203.252 568.418C202.928 567.03 202.159 565.786 201.061 564.876C198.096 562.371 194.145 563.116 190.697 564C188.207 564.642 189.236 568.506 191.764 567.863L191.727 567.819Z" fill="#4460F1"/>
<path d="M133.662 550.824C139.184 549.041 146.297 546.587 149.825 541.65C151.432 539.401 151.709 537.136 151.403 534.441C151.154 532.331 150.775 530.892 152.257 529.073C153.061 528.087 154.237 527.481 154.996 526.4C158.429 521.492 155.193 515.663 152.075 511.537C148.715 507.038 143.705 503.298 137.876 505.453C135.473 506.336 136.51 510.207 138.935 509.309C144.377 507.308 148.62 512.808 150.972 517.036C152.498 519.783 153.163 522.514 150.826 524.998C149.723 526.173 148.364 526.948 147.619 528.452C145.684 532.352 149.153 536.486 145.961 540.021C142.77 543.556 137.014 545.521 132.566 546.96C130.12 547.749 131.164 551.612 133.625 550.824H133.662Z" fill="#4460F1"/>
<path d="M144.865 481.628C147.286 484.511 151.139 485.761 154.791 484.849C159.904 483.542 161.109 478.926 164.87 476.004C167.872 473.675 169.873 470.987 170.231 467.087C170.333 465.94 168.865 455.401 166.645 456.598C168.902 455.357 166.886 451.895 164.629 453.144C162.168 454.502 162.526 456.671 163.84 458.775C165.791 461.908 167.149 465.429 165.674 469.088C164.447 472.133 161.043 473.47 159.173 476.136C157.654 478.327 156.522 480.336 153.725 480.993C151.462 481.482 149.119 480.63 147.699 478.802C146.019 476.837 143.2 479.685 144.865 481.636V481.628Z" fill="#4460F1"/>
<path d="M168.895 494.175C163.154 495.03 160.175 498.499 160.941 504.401C161.577 509.272 163.688 513.976 169.48 512.552C174.395 511.347 178.478 506.84 179.705 502.02C180.238 499.953 180.296 497.535 178.733 495.892C176.805 493.869 174.015 494.431 171.707 495.381C169.399 496.33 170.385 500.23 172.766 499.237C174.227 498.623 176.038 498.507 175.951 500.552C175.749 501.765 175.275 502.916 174.563 503.919C173.226 506.11 170.853 508.25 168.274 508.71C165.353 509.221 164.959 505.401 164.791 503.203C164.52 499.551 166.689 498.55 169.94 498.09C172.481 497.71 171.4 493.847 168.873 494.227L168.895 494.175Z" fill="#4460F1"/>
<path d="M170.487 567.623C168.23 566.951 164.827 565.841 163.183 563.971C162.095 562.685 162.665 563.343 162.577 561.736C162.586 561.051 162.477 560.369 162.256 559.72C161.379 557.397 159.4 557.171 160.415 554.198C161.08 552.278 162.241 551.036 162.322 548.896C162.446 545.901 160.13 542.381 163.614 540.431C166.572 538.795 169.728 541.3 170.604 544.083C171.291 546.31 170.765 548.743 171.502 550.977C172.152 552.957 174.322 554.286 174.614 556.287C174.994 558.829 178.85 557.748 178.477 555.228C178.286 554.077 177.781 553 177.017 552.117C175.417 550.006 175.147 548.348 174.913 545.697C174.761 542.779 173.465 540.039 171.305 538.072C167.025 534.325 159.765 535.698 157.91 541.351C157.515 542.767 157.487 544.26 157.83 545.69C158.289 548.042 157.911 550.481 156.763 552.584C155.522 555.228 155.829 556.967 157.267 559.413C158.801 561.999 157.633 564.402 160.123 566.586C162.83 568.864 165.997 570.533 169.406 571.479C171.882 572.21 172.941 568.346 170.473 567.615L170.487 567.623Z" fill="#4460F1"/>
<path d="M130.828 570.434C132.354 570.434 133.42 569.901 134.823 569.426C137.218 568.608 139.892 569.054 140.892 571.917C141.739 574.335 139.731 575.496 138.635 577.161C137.952 578.193 137.615 579.416 137.671 580.652C137.547 584.604 131.697 585.648 129.82 588.854C128.651 590.856 129.9 592.609 132.011 592.879C134.56 593.207 134.531 589.227 132.011 588.876L131.551 588.818L133.282 589.804L133.07 589.329V591.345C134.691 587.912 140.951 586.963 141.944 583.041C142.127 582.31 141.827 581.638 141.871 580.923C141.988 578.907 142.55 578.87 143.573 577.614C144.553 576.552 145.174 575.207 145.348 573.772C145.589 570.515 142.755 566.936 140.118 565.3C136.466 563.021 134.399 566.432 130.828 566.432C128.249 566.432 128.242 570.434 130.828 570.434Z" fill="#4460F1"/>
<path d="M155.77 576.175C154.69 575.906 153.562 576.388 153.012 577.356C152.461 578.323 152.621 579.539 153.404 580.331C153.9 580.879 154.657 581.11 155.374 580.931C156.091 580.751 156.651 580.191 156.83 579.474C157.009 578.757 156.779 578 156.231 577.504C156.665 577.943 156.791 578.601 156.552 579.17C156.232 579.873 155.45 580.24 154.704 580.039C155.771 580.333 156.875 579.707 157.169 578.64C157.464 577.573 156.837 576.47 155.77 576.175Z" fill="#4460F1"/>
<path d="M181.297 462.609H181.962C182.707 462.654 183.416 462.282 183.802 461.643C184.188 461.004 184.188 460.204 183.802 459.565C183.416 458.926 182.707 458.554 181.962 458.599H181.297C180.237 458.663 179.41 459.542 179.41 460.604C179.41 461.666 180.237 462.545 181.297 462.609Z" fill="#4460F1"/>
<path d="M325.392 118.631L327.788 117.411C328.74 116.853 329.066 115.631 328.518 114.672C327.949 113.733 326.74 113.411 325.779 113.942L323.384 115.155C322.431 115.713 322.105 116.935 322.653 117.893C323.224 118.83 324.431 119.151 325.392 118.624V118.631Z" fill="#4460F1"/>
<path d="M338.013 113.182C338.148 113.098 338.29 113.027 338.437 112.97C337.962 113.131 338.525 112.97 338.627 112.97C338.729 112.97 338.934 112.897 339.087 112.861C339.24 112.824 339.189 112.861 338.941 112.861H339.255C340.315 112.797 341.143 111.918 341.143 110.856C341.143 109.793 340.315 108.915 339.255 108.851C338.114 108.899 337 109.209 335.998 109.756C335.048 110.318 334.723 111.536 335.267 112.495C335.838 113.431 337.045 113.753 338.006 113.226L338.013 113.182Z" fill="#4460F1"/>
<path d="M382.296 61.7276C384.016 69.7337 384.484 77.958 383.684 86.1075L387.102 84.6906C382.347 79.1178 373.225 81.0387 370.355 87.5025C368.959 90.7681 368.959 94.4623 370.355 97.7278C371.238 99.8386 372.721 101.482 374.007 103.359C375.161 105.068 375.971 106.485 377.9 107.434C380.989 108.954 386.24 109.224 389.396 107.822C393.048 106.207 395.195 101.825 397.072 98.5458C398.817 95.5148 401.666 91.41 400.271 87.7509C398.671 83.5585 393.887 82.9888 390.046 83.3686C387.504 83.6388 387.475 87.6413 390.046 87.3711C391.506 87.2177 393.96 86.8379 395.217 87.7436C397.649 89.5111 396.261 91.505 395.392 93.2652C394.523 95.0254 393.464 96.8733 392.39 98.6042C391.024 100.795 389.564 103.834 386.825 104.447C384.378 104.988 380.485 104.608 378.732 102.986C375.628 100.065 372.546 94.8939 373.568 90.5701C374.73 85.6547 380.872 83.5366 384.29 87.561C385.525 89.0217 387.555 87.707 387.708 86.1513C388.517 77.6413 388.003 69.0573 386.182 60.705C385.634 58.1853 381.8 59.2443 382.318 61.7714L382.296 61.7276Z" fill="#4460F1"/>
<path d="M382.296 61.7276C384.016 69.7337 384.484 77.958 383.684 86.1075L387.102 84.6906C382.347 79.1178 373.225 81.0387 370.355 87.5025C368.959 90.7681 368.959 94.4623 370.355 97.7278C371.238 99.8386 372.721 101.482 374.007 103.359C375.161 105.068 375.971 106.485 377.9 107.434C380.989 108.954 386.24 109.224 389.396 107.822C393.048 106.207 395.195 101.825 397.072 98.5458C398.817 95.5148 401.666 91.41 400.271 87.7509C398.671 83.5585 393.887 82.9888 390.046 83.3686C387.504 83.6388 387.475 87.6413 390.046 87.3711C391.506 87.2177 393.96 86.8379 395.217 87.7436C397.649 89.5111 396.261 91.505 395.392 93.2652C394.523 95.0254 393.464 96.8733 392.39 98.6042C391.024 100.795 389.564 103.834 386.825 104.447C384.378 104.988 380.485 104.608 378.732 102.986C375.628 100.065 372.546 94.8939 373.568 90.5701C374.73 85.6547 380.872 83.5366 384.29 87.561C385.525 89.0217 387.555 87.707 387.708 86.1513C388.517 77.6413 388.003 69.0573 386.182 60.705C385.634 58.1853 381.8 59.2443 382.318 61.7714L382.296 61.7276Z" fill="#4460F1"/>
<path d="M451.104 175.337H453.478V177.711H451.104V175.337Z" fill="#E3F8FE"/>
<path d="M453.631 317.724V317.279C453.567 316.218 452.689 315.391 451.626 315.391C450.564 315.391 449.686 316.218 449.622 317.279V317.724C449.686 318.785 450.564 319.612 451.626 319.612C452.689 319.612 453.567 318.785 453.631 317.724Z" fill="#4460F1"/>
<path d="M441.148 331.968V332.406C441.148 333.511 442.044 334.407 443.15 334.407C444.255 334.407 445.151 333.511 445.151 332.406V331.968C445.151 330.862 444.255 329.966 443.15 329.966C442.044 329.966 441.148 330.862 441.148 331.968Z" fill="#4460F1"/>
<path d="M457.948 332.493L458.386 332.048C459.168 331.267 459.17 330 458.39 329.218C457.609 328.435 456.342 328.433 455.559 329.214L455.114 329.659C454.342 330.446 454.342 331.706 455.114 332.493C455.905 333.254 457.156 333.254 457.948 332.493Z" fill="#4460F1"/>
<path d="M467.567 315.417L467.121 315.863C466.615 316.368 466.417 317.104 466.601 317.795C466.785 318.486 467.324 319.026 468.014 319.212C468.704 319.398 469.442 319.202 469.948 318.697L470.364 318.288C470.87 317.783 471.069 317.046 470.885 316.355C470.7 315.664 470.162 315.124 469.471 314.938C468.781 314.752 468.044 314.949 467.538 315.454L467.567 315.417Z" fill="#4460F1"/>
<path d="M472.555 338.416C475.134 338.416 475.134 334.414 472.555 334.414C469.977 334.414 469.97 338.416 472.555 338.416Z" fill="#4460F1"/>
<path d="M460.526 342.39H460.08C458.975 342.39 458.079 343.286 458.079 344.391C458.079 345.496 458.975 346.392 460.08 346.392H460.526C461.631 346.392 462.527 345.496 462.527 344.391C462.527 343.286 461.631 342.39 460.526 342.39Z" fill="#4460F1"/>
<path d="M448.292 344.42V343.975C448.228 342.915 447.35 342.087 446.287 342.087C445.225 342.087 444.346 342.915 444.282 343.975V344.42C444.346 345.481 445.225 346.308 446.287 346.308C447.35 346.308 448.228 345.481 448.292 344.42Z" fill="#4460F1"/>
<path d="M430.712 349.094C433.29 349.094 433.298 345.092 430.712 345.092C428.127 345.092 428.134 349.094 430.712 349.094Z" fill="#4460F1"/>
<path d="M437.388 359.773C439.966 359.773 439.966 355.771 437.388 355.771C434.809 355.771 434.809 359.773 437.388 359.773Z" fill="#4460F1"/>
<path d="M452.105 358.458C454.683 358.458 454.69 354.455 452.105 354.455C449.519 354.455 449.526 358.458 452.105 358.458Z" fill="#4460F1"/>
<path d="M445.846 368.683C448.417 368.683 448.424 364.681 445.846 364.681C443.267 364.681 443.26 368.683 445.846 368.683Z" fill="#4460F1"/>
<path d="M457.853 374.453C460.431 374.453 460.438 370.451 457.853 370.451C455.267 370.451 455.275 374.453 457.853 374.453Z" fill="#4460F1"/>
<path d="M428.002 370.312L428.447 370.757C428.954 371.262 429.691 371.459 430.381 371.273C431.071 371.087 431.61 370.547 431.794 369.856C431.979 369.165 431.78 368.429 431.274 367.924L430.828 367.478C430.322 366.973 429.585 366.777 428.895 366.963C428.204 367.149 427.666 367.689 427.481 368.38C427.297 369.07 427.496 369.807 428.002 370.312Z" fill="#4460F1"/>
<path d="M436.942 381.099H437.388C438.493 381.099 439.389 380.203 439.389 379.098C439.389 377.993 438.493 377.097 437.388 377.097H436.942C435.837 377.097 434.941 377.993 434.941 379.098C434.941 380.203 435.837 381.099 436.942 381.099Z" fill="#4460F1"/>
<path d="M449.848 379.353C452.426 379.353 452.426 375.344 449.848 375.344C447.27 375.344 447.262 379.353 449.848 379.353Z" fill="#4460F1"/>
<path d="M458.744 387.359C461.322 387.359 461.33 383.357 458.744 383.357C456.159 383.357 456.166 387.359 458.744 387.359Z" fill="#4460F1"/>
<path d="M445.846 388.696C448.417 388.696 448.424 384.694 445.846 384.694C443.267 384.694 443.26 388.696 445.846 388.696Z" fill="#4460F1"/>
<path d="M435.167 393.143H435.606C436.711 393.143 437.607 392.248 437.607 391.142C437.607 390.037 436.711 389.141 435.606 389.141H435.167C434.062 389.141 433.166 390.037 433.166 391.142C433.166 392.248 434.062 393.143 435.167 393.143Z" fill="#4460F1"/>
<path d="M446.371 402.791L446.817 402.346C447.599 401.563 447.599 400.295 446.817 399.512C446.034 398.729 444.766 398.729 443.983 399.512L443.538 399.957C442.765 400.744 442.765 402.004 443.538 402.791C444.329 403.552 445.58 403.552 446.371 402.791Z" fill="#4460F1"/>
<path d="M454.296 396.701C456.874 396.701 456.874 392.698 454.296 392.698C451.718 392.698 451.718 396.701 454.296 396.701Z" fill="#4460F1"/>
<path d="M457.853 405.158C460.431 405.158 460.438 401.156 457.853 401.156C455.267 401.156 455.275 405.158 457.853 405.158Z" fill="#4460F1"/>
<path d="M464.521 306.82H464.967C466.072 306.82 466.968 305.924 466.968 304.819C466.968 303.714 466.072 302.818 464.967 302.818H464.521C463.416 302.818 462.52 303.714 462.52 304.819C462.52 305.924 463.416 306.82 464.521 306.82Z" fill="#4460F1"/>
<path d="M483.883 325.737V325.292C483.883 324.187 482.987 323.291 481.882 323.291C480.777 323.291 479.881 324.187 479.881 325.292V325.737C479.881 326.843 480.777 327.739 481.882 327.739C482.987 327.739 483.883 326.843 483.883 325.737Z" fill="#4460F1"/>
<path d="M481.217 306.156V305.71C481.205 304.61 480.316 303.721 479.216 303.709C478.118 303.728 477.231 304.612 477.208 305.71V306.156C477.272 307.216 478.15 308.043 479.212 308.043C480.275 308.043 481.153 307.216 481.217 306.156Z" fill="#4460F1"/>
<path d="M482.693 292.447L483.138 292.893C483.644 293.399 484.382 293.597 485.074 293.411C485.765 293.226 486.305 292.686 486.491 291.994C486.676 291.303 486.478 290.565 485.972 290.059L485.526 289.613C484.744 288.831 483.475 288.831 482.693 289.613C481.91 290.396 481.91 291.665 482.693 292.447Z" fill="#4460F1"/>
<path d="M490.34 313.051H491.224C492.329 313.051 493.225 312.155 493.225 311.049C493.225 309.944 492.329 309.048 491.224 309.048H490.34C489.235 309.048 488.339 309.944 488.339 311.049C488.339 312.155 489.235 313.051 490.34 313.051Z" fill="#4460F1"/>
<path d="M498.571 295.032V294.586C498.507 293.526 497.628 292.699 496.566 292.699C495.504 292.699 494.625 293.526 494.561 294.586V295.032C494.625 296.092 495.504 296.919 496.566 296.919C497.628 296.919 498.507 296.092 498.571 295.032Z" fill="#4460F1"/>
<path d="M504.801 283.463V283.017C504.737 281.957 503.858 281.13 502.796 281.13C501.734 281.13 500.855 281.957 500.791 283.017V283.463C500.855 284.523 501.734 285.35 502.796 285.35C503.858 285.35 504.737 284.523 504.801 283.463Z" fill="#4460F1"/>
<path d="M508.804 306.601V306.156C508.804 305.05 507.908 304.154 506.802 304.154C505.697 304.154 504.801 305.05 504.801 306.156V306.601C504.801 307.706 505.697 308.602 506.802 308.602C507.908 308.602 508.804 307.706 508.804 306.601Z" fill="#4460F1"/>
<path d="M510.44 324.036L510.885 323.59C511.657 322.803 511.657 321.543 510.885 320.756C510.094 319.996 508.843 319.996 508.051 320.756L507.613 321.209C506.831 321.992 506.831 323.261 507.613 324.043C508.396 324.826 509.665 324.826 510.447 324.043L510.44 324.036Z" fill="#4460F1"/>
<path d="M511.265 295.258C513.843 295.258 513.843 291.248 511.265 291.248C508.687 291.248 508.687 295.258 511.265 295.258Z" fill="#4460F1"/>
<path d="M501.04 342.39C503.618 342.39 503.618 338.388 501.04 338.388C498.462 338.388 498.455 342.39 501.04 342.39Z" fill="#4460F1"/>
<path d="M507.912 335.525V335.97C507.912 337.075 508.808 337.971 509.914 337.971C511.019 337.971 511.915 337.075 511.915 335.97V335.525C511.915 334.419 511.019 333.523 509.914 333.523C508.808 333.523 507.912 334.419 507.912 335.525Z" fill="#4460F1"/>
<path d="M502.792 355.771C505.371 355.771 505.378 351.761 502.792 351.761C500.207 351.761 500.214 355.771 502.792 355.771Z" fill="#4460F1"/>
<path d="M491.224 354.433C493.802 354.433 493.81 350.431 491.224 350.431C488.638 350.431 488.646 354.433 491.224 354.433Z" fill="#4460F1"/>
<path d="M480.991 366.894C483.569 366.894 483.576 362.884 480.991 362.884C478.405 362.884 478.412 366.894 480.991 366.894Z" fill="#4460F1"/>
<path d="M494.342 366.002C496.921 366.002 496.921 362 494.342 362C491.764 362 491.764 366.002 494.342 366.002Z" fill="#4460F1"/>
<path d="M504.575 371.341C507.153 371.341 507.153 367.339 504.575 367.339C501.996 367.339 501.996 371.341 504.575 371.341Z" fill="#4460F1"/>
<path d="M498.79 382.466C501.368 382.466 501.376 378.463 498.79 378.463C496.205 378.463 496.212 382.466 498.79 382.466Z" fill="#4460F1"/>
<path d="M486.33 375.79C488.908 375.79 488.915 371.788 486.33 371.788C483.744 371.788 483.752 375.79 486.33 375.79Z" fill="#4460F1"/>
<path d="M478.77 383.802H479.216C480.276 383.738 481.103 382.859 481.103 381.797C481.103 380.735 480.276 379.856 479.216 379.792H478.77C477.71 379.856 476.883 380.735 476.883 381.797C476.883 382.859 477.71 383.738 478.77 383.802Z" fill="#4460F1"/>
<path d="M489.003 390.033C491.581 390.033 491.581 386.023 489.003 386.023C486.425 386.023 486.425 390.033 489.003 390.033Z" fill="#4460F1"/>
<path d="M505.239 393.37V394.246C505.194 394.991 505.566 395.7 506.205 396.086C506.844 396.472 507.644 396.472 508.283 396.086C508.922 395.7 509.294 394.991 509.249 394.246V393.37C509.294 392.625 508.922 391.916 508.283 391.53C507.644 391.144 506.844 391.144 506.205 391.53C505.566 391.916 505.194 392.625 505.239 393.37Z" fill="#4460F1"/>
<path d="M499.681 399.819C502.26 399.819 502.26 395.817 499.681 395.817C497.103 395.817 497.103 399.819 499.681 399.819Z" fill="#4460F1"/>
<path d="M481.802 398.343L482.247 398.789C483.03 399.571 484.298 399.571 485.081 398.789C485.863 398.006 485.863 396.738 485.081 395.955L484.635 395.51C483.853 394.727 482.584 394.727 481.802 395.51C481.019 396.292 481.019 397.561 481.802 398.343Z" fill="#4460F1"/>
<path d="M491.772 411.046L492.663 410.593C493.615 410.034 493.941 408.813 493.393 407.854C492.822 406.918 491.616 406.596 490.654 407.123L489.763 407.569C488.81 408.128 488.485 409.349 489.033 410.308C489.602 411.247 490.811 411.57 491.772 411.038V411.046Z" fill="#4460F1"/>
<path d="M508.578 410.942C511.156 410.942 511.163 406.94 508.578 406.94C505.992 406.94 505.999 410.942 508.578 410.942Z" fill="#4460F1"/>
<path d="M500.127 419.393C502.705 419.393 502.705 415.391 500.127 415.391C497.548 415.391 497.548 419.393 500.127 419.393Z" fill="#4460F1"/>
<path d="M491.224 425.177C493.802 425.177 493.81 421.175 491.224 421.175C488.638 421.175 488.646 425.177 491.224 425.177Z" fill="#4460F1"/>
<path d="M513.457 425.652C516.028 425.652 516.035 421.65 513.457 421.65C510.878 421.65 510.871 425.652 513.457 425.652Z" fill="#4460F1"/>
<path d="M456.407 427.252C456.705 428.255 457.41 429.086 458.35 429.545C459.29 430.003 460.379 430.046 461.352 429.663C462.368 429.25 463.235 428.536 463.835 427.618C464.405 426.829 464.748 425.85 465.391 425.112C467.085 423.184 464.266 420.336 462.564 422.279C461.88 423.134 461.276 424.051 460.76 425.017C460.592 425.302 460.249 425.565 460.11 425.843C459.906 426.237 460.11 425.543 460.271 426.186C459.621 423.695 455.757 424.725 456.407 427.252Z" fill="#4460F1"/>
<path d="M505.707 454.649C506.671 456.497 508.701 458.235 510.885 457.081C511.713 456.552 512.356 455.779 512.725 454.868L514.303 451.844C515.494 449.558 512.039 447.535 510.841 449.821L509.263 452.845C509.122 453.055 509.005 453.281 508.913 453.517L508.774 453.78L509.505 453.458C509.636 453.334 509.599 453.67 509.505 453.312C509.409 453.081 509.289 452.861 509.147 452.655C507.956 450.361 504.501 452.385 505.685 454.678L505.707 454.649Z" fill="#4460F1"/>
<path d="M460.979 114.783C460.215 117.706 459.895 120.727 460.029 123.745C460.153 126.308 464.156 126.323 464.039 123.745C463.907 121.088 464.178 118.426 464.842 115.849C465.492 113.352 461.629 112.292 460.979 114.783Z" fill="#4460F1"/>
<path d="M475.272 116.945C473.75 119.068 472.7 121.491 472.189 124.052C471.686 126.564 475.542 127.645 476.053 125.111C476.483 122.891 477.398 120.793 478.734 118.968C479.213 118.02 478.872 116.863 477.955 116.327C477.038 115.791 475.862 116.062 475.272 116.945Z" fill="#4460F1"/>
<path d="M490.296 120.443C488.956 123.043 487.316 125.477 485.41 127.696C483.737 129.638 486.557 132.487 488.244 130.529C490.384 128.074 492.232 125.377 493.751 122.495C494.949 120.217 491.494 118.186 490.296 120.472V120.443Z" fill="#4460F1"/>
<path d="M530.985 254.423C543.545 270.003 548.945 290.16 545.856 309.932C545.454 312.452 549.31 313.54 549.712 310.998C553.1 289.837 547.317 268.235 533.812 251.597C532.19 249.595 529.371 252.444 530.985 254.43V254.423Z" fill="#4460F1"/>
<path d="M555.482 258.652C560.436 268.487 562.811 279.419 562.384 290.423C562.296 292.994 566.299 292.994 566.393 290.423C566.804 278.71 564.241 267.084 558.944 256.629C557.782 254.328 554.328 256.351 555.482 258.652Z" fill="#4460F1"/>
<path d="M103.16 434.658L104.49 435.995C104.996 436.501 105.734 436.699 106.425 436.514C107.117 436.328 107.657 435.788 107.842 435.097C108.027 434.405 107.83 433.667 107.324 433.161L105.987 431.825C105.204 431.044 103.937 431.046 103.157 431.828C102.376 432.611 102.378 433.878 103.16 434.658Z" fill="#4460F1"/>
<path d="M118.045 421.379C117.539 423.044 117.807 424.849 118.776 426.295C119.347 427.231 120.553 427.553 121.515 427.025C122.464 426.464 122.789 425.246 122.245 424.286C122.194 424.221 121.851 423.607 121.953 423.855C121.872 423.661 121.815 423.458 121.785 423.249C121.836 423.585 121.785 422.972 121.785 422.95C121.785 422.701 121.785 422.672 121.785 422.862C121.814 422.726 121.85 422.592 121.895 422.46C122.189 421.393 121.563 420.29 120.496 419.995C119.429 419.701 118.325 420.327 118.031 421.394L118.045 421.379Z" fill="#4460F1"/>
<path d="M134.245 420.904L132.931 423.57C132.451 424.518 132.792 425.676 133.709 426.212C134.627 426.748 135.803 426.477 136.393 425.594L137.722 422.92C138.114 422.302 138.137 421.518 137.781 420.878C137.426 420.238 136.749 419.843 136.016 419.848C135.284 419.854 134.613 420.259 134.267 420.904H134.245Z" fill="#4460F1"/>
<path d="M164.833 432.759C169.425 427.913 175.311 424.486 181.792 422.884C184.283 422.249 183.253 418.385 180.726 419.021C173.575 420.807 167.079 424.592 161.999 429.933C160.224 431.795 163.051 434.629 164.833 432.759Z" fill="#4460F1"/>
<path d="M168.032 413.279C173.398 408.54 180.185 405.715 187.329 405.245C189.885 405.063 189.907 401.06 187.329 401.236C179.134 401.761 171.349 405.004 165.206 410.453C163.263 412.155 166.104 414.981 168.032 413.287V413.279Z" fill="#4460F1"/>
<path d="M265.705 133.129C267.836 127.334 271.366 122.155 275.982 118.054C277.903 116.331 275.061 113.504 273.148 115.228C268.051 119.813 264.169 125.589 261.849 132.041C260.958 134.466 264.829 135.51 265.705 133.108V133.129Z" fill="#4460F1"/>
<path d="M250.171 122.766C252.921 118.66 255.906 114.717 259.11 110.956C260.768 109.005 257.949 106.164 256.277 108.129C252.851 112.15 249.659 116.364 246.716 120.75C245.255 122.89 248.739 124.898 250.171 122.766Z" fill="#4460F1"/>
<path opacity="0.8" fill-rule="evenodd" clip-rule="evenodd" d="M526.528 4.23907C527.761 4.34353 528.685 5.43255 528.592 6.67146C528.522 7.59121 528.501 8.5665 528.477 9.64202C528.462 10.3062 528.447 11.0086 528.418 11.7597C528.349 13.6006 528.202 15.6367 527.718 17.4193C527.24 19.1788 526.321 21.1028 524.395 22.1535C522.441 23.2192 520.077 23.0509 517.507 22.0857C515.633 21.3819 514.31 21.035 513.392 20.9138C512.718 20.8248 512.386 20.8742 512.257 20.9062C512.252 20.923 512.246 20.9438 512.239 20.9694C512.161 21.2553 512.123 21.7302 512.145 22.5265C512.153 22.7926 512.169 23.1028 512.188 23.4452C512.262 24.8187 512.365 26.7106 512.005 28.3588C511.76 29.4825 511.286 30.6487 510.392 31.6704C509.492 32.6984 508.279 33.451 506.76 33.9211C505.58 34.286 504.322 33.6184 503.949 32.4298C503.576 31.2413 504.229 29.9819 505.409 29.617C506.272 29.3497 506.74 28.9978 507.018 28.6803C507.301 28.3565 507.503 27.9362 507.629 27.3587C507.846 26.3656 507.793 25.3295 507.729 24.0578C507.706 23.6092 507.682 23.1313 507.667 22.6156C507.643 21.7563 507.654 20.7131 507.918 19.7448C508.204 18.6969 508.827 17.6044 510.072 16.9427C511.218 16.3329 512.567 16.2687 513.939 16.4499C515.336 16.6343 517.02 17.1093 519.044 17.8697C521.026 18.6139 521.89 18.3791 522.233 18.1922C522.603 17.9901 523.049 17.4752 523.396 16.1992C523.736 14.9463 523.874 13.3504 523.942 11.5524C523.964 10.9646 523.978 10.3346 523.993 9.69626C524.02 8.51949 524.048 7.3144 524.125 6.29318C524.218 5.05427 525.294 4.13461 526.528 4.23907ZM512.28 20.8463C512.28 20.8464 512.28 20.8468 512.28 20.8476C512.28 20.8467 512.28 20.8463 512.28 20.8463Z" fill="#F86C59"/>
<path fill-rule="evenodd" clip-rule="evenodd" d="M580.904 90.2643L582.714 73.5289L596.302 83.464L580.904 90.2643ZM579.679 73.2007C579.932 70.865 582.618 69.6786 584.515 71.0652L598.103 81.0004C600 82.387 599.684 85.3067 597.535 86.2558L582.137 93.0561C579.987 94.0052 577.617 92.2719 577.869 89.9361L579.679 73.2007Z" fill="#1ECCAF"/>
<path fill-rule="evenodd" clip-rule="evenodd" d="M161.209 46.0633C160.856 46.6294 160.522 47.2841 160.378 47.9692C160.242 48.6196 160.225 49.6341 161.045 50.3669C161.746 50.9924 162.635 50.9976 163.121 50.9623C164.173 50.886 165.537 50.4122 166.752 49.9637C167.145 49.8188 167.536 49.6707 167.925 49.5233C168.853 49.1724 169.767 48.8262 170.654 48.5403C171.751 48.1864 172.568 48.0095 173.1 47.9916C172.804 48.6614 172.169 49.6201 171.266 50.8402C170.974 51.2347 170.657 51.6521 170.333 52.0801C169.579 53.0743 168.782 54.1255 168.148 55.0787C167.687 55.7719 167.258 56.4905 166.96 57.1815C166.681 57.8301 166.415 58.685 166.565 59.5588C166.631 59.9408 166.781 60.3482 167.076 60.7081C167.375 61.0739 167.752 61.3046 168.133 61.4331C168.825 61.6665 169.536 61.5678 170.034 61.4567C171.068 61.226 172.33 60.656 173.467 60.1277C173.664 60.0363 173.86 59.9448 174.055 59.8538C175.065 59.3816 176.043 58.9243 176.955 58.5808C178.118 58.1431 178.8 58.045 179.098 58.099C179.79 58.2238 180.091 58.3936 180.195 58.476C180.201 58.4809 180.206 58.4852 180.21 58.489C180.21 58.5638 180.185 58.7694 180.01 59.1437C179.823 59.5419 179.517 60.0249 179.083 60.5862C177.506 62.6291 174.812 65.0153 172.4 67.1516C172.089 67.4272 171.782 67.6986 171.484 67.9646C170.802 68.5718 170.737 69.614 171.339 70.2923C171.941 70.9707 172.981 71.0284 173.663 70.4211C173.951 70.1651 174.253 69.8979 174.566 69.6214C176.932 67.5282 179.896 64.9063 181.684 62.591C182.202 61.9205 182.664 61.2236 182.991 60.5261C183.311 59.8423 183.558 59.0383 183.494 58.1972C183.425 57.2836 182.998 56.4792 182.254 55.8881C181.565 55.3407 180.675 55.0294 179.705 54.8543C178.431 54.624 176.98 55.0574 175.815 55.4958C174.77 55.889 173.652 56.412 172.646 56.8829C172.459 56.9704 172.276 57.0561 172.098 57.1388C171.374 57.4753 170.753 57.7521 170.239 57.9502C170.409 57.6374 170.625 57.2845 170.886 56.8927C171.462 56.027 172.152 55.1174 172.873 54.1664C173.214 53.717 173.562 53.2584 173.908 52.7909C174.896 51.4557 175.967 49.9263 176.37 48.6204C176.573 47.964 176.733 46.9654 176.168 46.053C175.585 45.1118 174.572 44.8019 173.72 44.7175C172.462 44.593 170.961 44.9846 169.664 45.4029C168.694 45.7156 167.653 46.1094 166.696 46.4718C166.326 46.6118 165.968 46.7471 165.631 46.8713C165.131 47.0561 164.689 47.211 164.307 47.3341C164.518 47.0365 164.766 46.7134 165.049 46.3656C165.583 45.7079 166.154 45.061 166.75 44.3847C167.167 43.9122 167.597 43.4254 168.035 42.9105C169.011 41.7648 170.034 40.4759 170.555 39.2798C170.818 38.6767 171.044 37.8972 170.9 37.0739C170.738 36.1484 170.162 35.4548 169.38 35.0253C168.011 34.2738 166.49 34.41 165.241 34.7347C163.972 35.0643 162.684 35.6681 161.58 36.2186C161.271 36.3724 160.981 36.5201 160.706 36.6597C159.93 37.0541 159.279 37.3846 158.707 37.6099C158.438 37.7161 158.251 37.7712 158.131 37.7974C157.476 37.4579 156.647 37.5955 156.134 38.1777C155.531 38.8628 155.593 39.9043 156.273 40.5038C156.935 41.0871 157.729 41.1511 158.292 41.0998C158.852 41.0488 159.411 40.8675 159.895 40.6767C160.628 40.3881 161.485 39.9519 162.304 39.5355C162.552 39.4095 162.796 39.2853 163.032 39.1675C164.125 38.6228 165.143 38.1605 166.048 37.9255C166.799 37.7302 167.283 37.7424 167.593 37.8398C167.578 37.8803 167.56 37.9271 167.537 37.9806C167.239 38.6635 166.536 39.6062 165.535 40.7818C165.181 41.1969 164.782 41.6505 164.372 42.1157C163.727 42.8489 163.056 43.6109 162.499 44.2964C162.025 44.8803 161.572 45.4791 161.209 46.0633ZM162.787 47.6748C162.786 47.6755 162.796 47.677 162.819 47.6773C162.799 47.6743 162.787 47.6742 162.787 47.6748ZM180.229 58.5078C180.229 58.5078 180.229 58.5073 180.228 58.5065L180.229 58.5078ZM173.264 47.4873C173.264 47.4875 173.263 47.4928 173.263 47.5026C173.265 47.492 173.265 47.4871 173.264 47.4873ZM173.602 48.038C173.61 48.0416 173.614 48.0431 173.614 48.0429C173.615 48.0427 173.611 48.0409 173.602 48.038Z" fill="#4460F1"/>
</svg>
